<svg width="272" height="67" viewBox="0 0 272 67" fill="none" xmlns="http://www.w3.org/2000/svg">
<g clip-path="url(#clip0_1504_374)">
<path d="M24.6371 36.1454H14.645L19.9385 19.7492L24.6371 36.1454ZM9.99215 52.7158L13.1042 42.7213H25.8575L28.9696 52.7158H39.5643L28.3441 14.7992C27.7187 12.3096 26.4754 11.5112 23.6684 11.5112H8.10051V14.9226H9.38194C11.2507 14.9226 12.1889 15.4887 12.1889 16.8532C12.1889 17.7097 12.1889 18.3049 11.2507 20.3226L0 52.723" fill="#003781"/>
<path d="M52.9663 52.723V14.5306C52.9663 12.5418 51.723 11.5039 49.5415 11.5039H39.8926V14.9152H40.518C42.3868 14.9152 43.325 15.641 43.325 17.2596V52.7157" fill="#003781"/>
<path d="M70.4018 52.723V14.5306C70.4018 12.5418 69.1585 11.5039 66.977 11.5039H57.3281V14.9152H57.9536C59.8223 14.9152 60.7605 15.641 60.7605 17.2596V52.7157" fill="#003781"/>
<path d="M88.1749 15.1547C88.1749 12.4256 85.9934 10.7998 82.5686 10.7998C78.8311 10.7998 76.9623 12.4039 76.9623 15.1547C76.9623 17.9055 78.8311 19.5749 82.5686 19.5749C85.9934 19.5749 88.1749 17.9418 88.1749 15.1547ZM87.8622 52.7156V24.9097C87.8971 24.5091 87.8408 24.1061 87.6971 23.7281C87.5534 23.3501 87.3258 23.0061 87.0296 22.7195C86.7335 22.4329 86.3759 22.2104 85.9812 22.0673C85.5865 21.9242 85.1639 21.8638 84.7425 21.8903H75.0859V25.2435H75.7419C77.6107 25.2435 78.2361 25.9693 78.2361 27.675V52.7592" fill="#003781"/>
<path d="M110.921 37.7493V43.9187C109.052 45.697 106.87 46.7058 105.002 46.7058C103.133 46.7058 102.195 45.8494 102.195 43.534C102.195 40.9864 102.82 40.0066 105.002 39.1791C106.905 38.4657 108.893 37.9781 110.921 37.7275V37.7493ZM97.1911 30.346L98.1293 29.9903C100.032 29.2378 102.017 28.69 104.048 28.3572C104.979 28.2313 105.916 28.1513 106.855 28.1177C109.967 28.1177 110.905 29.0976 110.905 31.8266V32.596C106.542 33.2783 105.299 33.5178 102.805 34.0476C101.528 34.3483 100.279 34.7438 99.0674 35.2307C95.0172 36.7694 93.1484 39.738 93.1484 44.3905C93.1484 50.197 95.6427 53.0204 101.249 53.0204C103.325 53.0637 105.373 52.5614 107.168 51.5688C108.691 50.9427 110.067 50.0347 111.218 48.8978V49.8486C111.218 51.7793 112.156 52.6938 114.025 52.6938H123.369V49.5438H123.033C121.162 49.5438 120.226 48.743 120.226 47.1413V31.9936C120.226 24.104 117.419 21.4402 109.319 21.4402C106.696 21.4297 104.082 21.7172 101.531 22.2967C99.2362 22.7686 97.0296 23.5688 94.9867 24.6701" fill="#003781"/>
<path d="M138.021 52.723V31.7904C140.202 29.8598 141.758 29.1194 143.94 29.1194C146.121 29.1194 146.747 30.0122 146.747 33.155V52.752H156.403V31.7033C156.403 27.3485 155.778 25.5049 154.534 23.8791C153.009 22.275 151.11 21.5347 148.303 21.5347C144.565 21.5347 141.758 22.8411 137.395 26.4267V24.7646C137.395 22.8339 136.457 21.8613 134.588 21.8613H125.252V25.2146H125.565C127.433 25.2146 128.372 25.9404 128.372 27.646V52.7302" fill="#003781"/>
<path d="M186.342 46.8148H171.987L185.717 28.1976V21.854H165.122C162.628 21.854 161.697 22.8048 161.697 25.0839V30.6872H165.122V30.063C165.122 28.3718 166.06 27.6896 167.929 27.6896H175.404L161.385 46.3067V52.7084H186.342" fill="#003781"/>
<path d="M241.467 51.0246V16.0839C241.467 13.2677 240.224 12.3459 237.417 12.3459H229.026V16.2H229.965C231.49 16.2 232.146 16.7661 232.146 18.4863V51.0101L241.467 51.0246ZM246.456 51.0246H255.494V24.6703C255.494 21.9993 254.251 20.9323 251.444 20.9323H246.448L246.456 51.0246ZM227.135 51.0246V20.9323H222.146C219.339 20.9323 218.096 21.9993 218.096 24.6703V51.0246H227.135ZM266.081 33.5034C266.081 49.8415 253.618 61.7594 236.791 61.7594C219.965 61.7594 207.501 49.8415 207.501 33.5034C207.501 17.1653 219.965 5.19664 236.791 5.19664C253.618 5.19664 266.081 17.1145 266.081 33.4526V33.5034ZM272 33.4526C272 14.3274 257.043 -0.0219727 236.791 -0.0219727C216.853 -0.0001982 201.598 14.3492 201.598 33.5034C201.598 52.6577 216.853 67.0361 236.807 67.0361C257.058 67.0361 272.016 52.6867 272.016 33.5034" fill="#003781"/>
</g>
<defs>
<clipPath id="clip0_1504_374">
<rect width="272" height="67" fill="white"/>
</clipPath>
</defs>
</svg>
