<svg width="196" height="141" viewBox="0 0 196 141" fill="none" xmlns="http://www.w3.org/2000/svg">
<path fill-rule="evenodd" clip-rule="evenodd" d="M69.9961 30.0252C69.4082 24.9648 68.8203 19.9064 68.2323 14.8459C126.506 -0.0322466 159.906 16.1299 124.275 54.4996C107.442 71.2919 77.8611 90.7875 34.8504 93.1661C26.0866 93.65 0.596282 93.4092 5.12915 75.733C8.24106 63.6033 21.6123 55.5878 30.3388 51.2629C69.2412 31.9823 136.902 35.3954 127.046 73.7565C119.105 74.8405 111.165 75.9244 103.227 77.0083C112.55 56.2675 78.3087 47.4089 53.822 57.132C28.9871 67.0207 20.4489 84.0366 56.3211 76.8341C129.552 58.0417 140.028 7.89935 69.9961 30.0252Z" fill="#00509E"/>
<path fill-rule="evenodd" clip-rule="evenodd" d="M98.2617 59.1191C102.017 61.6161 104.645 65.0162 104.798 70.3907C112.192 65.6421 118.443 60.1966 124.278 54.4996C121.132 50.3273 117.375 47.4433 113.12 45.626C109.867 49.9918 105.143 54.4716 98.2617 59.1191Z" fill="#FFEC00"/>
<path fill-rule="evenodd" clip-rule="evenodd" d="M94.1088 88.0817C94.0982 88.5484 94.0147 88.9506 93.8584 89.2904C93.7039 89.6259 93.4889 89.8904 93.2136 90.0732C92.9401 90.256 92.6168 90.3485 92.2491 90.3507C91.7909 90.3485 91.3877 90.2023 91.0449 89.9205C90.7038 89.6345 90.4339 89.2237 90.242 88.6925C90.052 88.1613 89.9525 87.5226 89.9507 86.7806C89.9525 86.0494 90.0467 85.4278 90.2367 84.9138C90.4268 84.402 90.6932 84.0084 91.0378 83.7331C91.3824 83.46 91.7909 83.3224 92.2616 83.3202C92.5138 83.3224 92.7465 83.3589 92.9543 83.432C93.1657 83.5073 93.3557 83.5976 93.5298 83.7052C93.7056 83.8127 93.8673 83.9202 94.0182 84.0278C94.1639 84.1375 94.3042 84.2278 94.4356 84.3009C94.5689 84.3719 94.6968 84.4127 94.8193 84.4149C94.9863 84.4127 95.1372 84.3547 95.2705 84.2428C95.4019 84.131 95.5103 83.9869 95.5866 83.8041C95.6683 83.6213 95.7074 83.4234 95.7092 83.2084C95.7074 82.9266 95.6293 82.6471 95.4694 82.3718C95.3095 82.0965 95.0822 81.8427 94.7838 81.6169C94.4872 81.3889 94.1319 81.2061 93.7163 81.0685C93.3007 80.9308 92.8388 80.862 92.3273 80.8599C91.6204 80.862 90.9827 80.9997 90.4143 81.2749C89.8442 81.5502 89.3593 81.9502 88.9543 82.4685C88.5475 82.9869 88.2349 83.6127 88.02 84.3482C87.8015 85.0816 87.6932 85.9074 87.6914 86.8279C87.6932 87.7269 87.8015 88.5441 88.02 89.2732C88.2349 90.0066 88.5387 90.6346 88.933 91.1636C89.3237 91.6905 89.7891 92.097 90.3237 92.3787C90.8566 92.6648 91.4427 92.8089 92.0804 92.811C92.7376 92.8089 93.3291 92.6734 93.8566 92.4067C94.3841 92.1422 94.8335 91.7637 95.2083 91.2798C95.5831 90.798 95.869 90.2281 96.068 89.57C96.2669 88.9119 96.3682 88.185 96.3682 87.3978C96.3682 86.9871 96.3184 86.6559 96.2172 86.4042C96.1142 86.1526 95.9579 85.9677 95.7429 85.8537C95.5262 85.7397 95.2509 85.6795 94.9099 85.6838H93.3717C92.8832 85.6795 92.5138 85.7762 92.2687 85.972C92.0236 86.1655 91.901 86.4731 91.901 86.8903C91.901 87.3097 92.0236 87.6129 92.2687 87.8C92.5138 87.9914 92.8832 88.0839 93.3717 88.0817H94.1088ZM101.363 86.3032V83.5568H102.358C102.78 83.5611 103.102 83.6794 103.324 83.9181C103.549 84.1525 103.659 84.4837 103.663 84.9074C103.659 85.3461 103.546 85.6902 103.318 85.9311C103.089 86.1763 102.761 86.2989 102.333 86.3032H101.363ZM101.363 88.0172L103.805 91.7787C103.995 92.0755 104.178 92.3013 104.358 92.4583C104.535 92.6175 104.725 92.697 104.928 92.6992C105.123 92.697 105.295 92.6411 105.445 92.5357C105.592 92.4282 105.709 92.2841 105.793 92.1013C105.88 91.9228 105.921 91.7185 105.922 91.4927C105.922 91.0819 105.716 90.5894 105.302 90.0152L103.649 87.7634C104.112 87.6667 104.507 87.4774 104.834 87.2021C105.16 86.9268 105.411 86.5784 105.581 86.1548C105.757 85.7311 105.842 85.2536 105.844 84.716C105.844 84.1955 105.768 83.7181 105.617 83.2879C105.464 82.8578 105.24 82.4858 104.944 82.1739C104.647 81.8621 104.279 81.619 103.846 81.4513C103.411 81.2792 102.912 81.1954 102.345 81.1932H100.718C100.429 81.1932 100.191 81.2276 100 81.2986C99.8158 81.3674 99.6648 81.4793 99.56 81.6255C99.4516 81.7739 99.377 81.9631 99.3344 82.189C99.29 82.4169 99.2687 82.6901 99.2723 83.0019V90.7959C99.2723 91.4066 99.3557 91.8647 99.528 92.1658C99.7021 92.4691 99.9614 92.6196 100.317 92.6196C100.672 92.6196 100.935 92.4691 101.107 92.1658C101.279 91.8647 101.363 91.4066 101.363 90.7959V88.0172ZM108.786 87.6344C108.789 88.4775 108.882 89.2216 109.064 89.8646C109.247 90.5077 109.512 91.0475 109.858 91.4841C110.199 91.9228 110.615 92.2519 111.096 92.4755C111.581 92.697 112.123 92.811 112.725 92.811C113.327 92.811 113.871 92.697 114.354 92.4755C114.841 92.2519 115.253 91.9228 115.596 91.4841C115.94 91.0475 116.205 90.5077 116.386 89.8646C116.569 89.2216 116.661 88.4775 116.663 87.6344V82.875C116.663 82.2621 116.58 81.8061 116.407 81.5051C116.235 81.1997 115.974 81.0491 115.619 81.0491C115.265 81.0491 115.001 81.1997 114.828 81.5051C114.658 81.8061 114.572 82.2621 114.572 82.875V87.3505C114.572 88.3506 114.414 89.1033 114.105 89.6023C113.793 90.1012 113.334 90.3507 112.725 90.3507C112.118 90.3507 111.658 90.1012 111.347 89.6023C111.036 89.1033 110.878 88.3506 110.878 87.3505V82.875C110.878 82.2621 110.794 81.8061 110.622 81.5051C110.45 81.1997 110.187 81.0491 109.832 81.0491C109.478 81.0491 109.214 81.1997 109.043 81.5051C108.873 81.8061 108.786 82.2621 108.786 82.875V87.6344ZM122.189 86.5247V83.5568H123.093C123.576 83.5546 123.937 83.6751 124.173 83.9138C124.409 84.1547 124.528 84.5289 124.526 85.0343C124.526 85.5268 124.409 85.8988 124.169 86.1483C123.93 86.3956 123.571 86.5247 123.093 86.5247H122.189ZM122.189 90.7959V88.8581H123.596C124.276 88.856 124.851 88.7011 125.324 88.3914C125.798 88.086 126.159 87.6473 126.409 87.0752C126.66 86.5053 126.784 85.8257 126.786 85.0343C126.784 84.2514 126.651 83.574 126.382 82.9998C126.116 82.4277 125.736 81.9847 125.233 81.6685C124.734 81.3567 124.132 81.1975 123.429 81.1932H121.542C121.255 81.1932 121.017 81.2276 120.828 81.2986C120.638 81.3674 120.491 81.4793 120.384 81.6255C120.279 81.7739 120.203 81.9631 120.159 82.189C120.116 82.4169 120.095 82.6901 120.096 83.0019V90.7959C120.096 91.4066 120.18 91.8647 120.354 92.1658C120.525 92.4691 120.789 92.6196 121.143 92.6196C121.498 92.6196 121.761 92.4691 121.933 92.1658C122.104 91.8647 122.189 91.4066 122.189 90.7959ZM129.278 86.843C129.278 87.7398 129.384 88.5527 129.599 89.2818C129.811 90.013 130.114 90.6389 130.514 91.1658C130.908 91.6905 131.382 92.097 131.933 92.3787C132.487 92.6648 133.102 92.8089 133.782 92.811C134.462 92.8089 135.081 92.6648 135.633 92.3787C136.187 92.097 136.663 91.6905 137.061 91.1658C137.457 90.6389 137.766 90.013 137.977 89.2818C138.192 88.5527 138.301 87.7398 138.303 86.843C138.301 85.944 138.191 85.1289 137.974 84.3955C137.755 83.6665 137.446 83.0385 137.047 82.5137C136.647 81.9868 136.169 81.5846 135.617 81.3029C135.065 81.0212 134.454 80.8771 133.782 80.8749C133.111 80.8771 132.501 81.0212 131.951 81.3029C131.4 81.5846 130.926 81.9868 130.528 82.5137C130.13 83.0385 129.819 83.6665 129.604 84.3955C129.388 85.1289 129.278 85.944 129.278 86.843ZM131.548 86.8731C131.551 86.1268 131.647 85.4859 131.832 84.9568C132.018 84.4278 132.278 84.0235 132.613 83.7439C132.946 83.4621 133.336 83.3224 133.782 83.3202C134.228 83.3224 134.62 83.4621 134.953 83.7439C135.287 84.0235 135.549 84.4278 135.732 84.9568C135.919 85.4859 136.015 86.1268 136.017 86.8731C136.015 87.5914 135.917 88.2108 135.731 88.7291C135.542 89.2474 135.285 89.6453 134.947 89.9248C134.613 90.2044 134.226 90.3485 133.782 90.3507C133.342 90.3485 132.953 90.2044 132.619 89.9248C132.285 89.6453 132.022 89.2474 131.835 88.7291C131.647 88.2108 131.551 87.5914 131.548 86.8731Z" fill="#1B1918"/>
<path fill-rule="evenodd" clip-rule="evenodd" d="M61.8237 112.948L64.3263 104.537L66.6603 112.948H61.8237ZM60.5146 117.697H67.9942L68.5626 119.798C68.7899 120.641 69.099 121.275 69.4969 121.69C69.8912 122.11 70.3885 122.316 70.98 122.316C71.4116 122.31 71.7953 122.211 72.1416 122.013C72.4827 121.817 72.7526 121.535 72.9516 121.174C73.1523 120.813 73.2535 120.389 73.2553 119.894C73.2553 119.671 73.2269 119.421 73.1772 119.15C73.1203 118.877 73.0439 118.589 72.9427 118.269L67.8237 101.986C67.5057 101.01 67.0599 100.266 66.4826 99.7623C65.9089 99.2526 65.2269 98.9966 64.44 98.9902C63.591 98.9902 62.8841 99.2612 62.3157 99.8117C61.742 100.364 61.2801 101.205 60.9125 102.334L55.6531 118.333C55.5661 118.572 55.5093 118.817 55.4755 119.071C55.4382 119.32 55.4258 119.576 55.4258 119.83C55.4293 120.314 55.5235 120.738 55.71 121.105C55.8929 121.471 56.1487 121.759 56.4755 121.966C56.8041 122.172 57.1824 122.28 57.6141 122.284C58.1114 122.284 58.5519 122.092 58.9267 121.712C59.3015 121.329 59.6052 120.755 59.8325 119.989L60.5146 117.697ZM79.5999 118.589V108.169L87.9303 120.499C88.3673 121.146 88.7989 121.626 89.2198 121.929C89.6461 122.23 90.0973 122.385 90.5751 122.381C91.3104 122.381 91.8451 122.11 92.1825 121.572C92.5182 121.03 92.6852 120.228 92.6799 119.161V102.687C92.6799 101.461 92.4951 100.543 92.1168 99.9365C91.7367 99.3257 91.1594 99.0224 90.3761 99.0224C89.5999 99.0224 89.0173 99.3257 88.6372 99.9365C88.2625 100.543 88.0724 101.461 88.0724 102.687V113.298L79.5697 100.711C79.3282 100.352 79.0813 100.048 78.8344 99.7988C78.5875 99.5536 78.3299 99.3687 78.0475 99.2418C77.774 99.1192 77.4649 99.0547 77.1239 99.0547C76.3885 99.0547 75.8486 99.3472 75.5022 99.9257C75.1558 100.502 74.9853 101.36 74.9907 102.496V118.589C74.9907 119.815 75.1754 120.733 75.5555 121.34C75.9338 121.948 76.5129 122.249 77.2944 122.249C78.0759 122.249 78.655 121.948 79.0333 121.34C79.4134 120.733 79.5999 119.815 79.5999 118.589ZM98.8806 104.122V118.589C98.8806 119.815 99.0653 120.733 99.4437 121.34C99.8238 121.948 100.403 122.249 101.183 122.249C101.966 122.249 102.545 121.948 102.923 121.34C103.302 120.733 103.486 119.815 103.486 118.589V104.122H105.193C106.289 104.122 107.11 103.926 107.648 103.537C108.193 103.145 108.463 102.539 108.463 101.732C108.463 100.917 108.193 100.315 107.648 99.9106C107.11 99.5128 106.289 99.3106 105.193 99.3106H97.1737C96.0778 99.3106 95.2589 99.5128 94.719 99.9106C94.1737 100.315 93.9055 100.917 93.9055 101.732C93.9055 102.539 94.1737 103.145 94.719 103.537C95.2589 103.926 96.0778 104.122 97.1737 104.122H98.8806ZM108.692 110.653C108.696 112.451 108.934 114.086 109.403 115.548C109.872 117.017 110.54 118.275 111.417 119.331C112.289 120.389 113.332 121.2 114.545 121.768C115.763 122.342 117.119 122.63 118.618 122.634C120.115 122.63 121.476 122.342 122.694 121.768C123.911 121.2 124.959 120.389 125.836 119.331C126.708 118.275 127.385 117.017 127.856 115.548C128.33 114.086 128.566 112.451 128.57 110.653C128.566 108.849 128.325 107.212 127.845 105.741C127.367 104.276 126.684 103.016 125.803 101.96C124.922 100.909 123.874 100.096 122.655 99.5343C121.442 98.9622 120.096 98.6783 118.618 98.6719C117.138 98.6783 115.797 98.9622 114.584 99.5343C113.369 100.096 112.326 100.909 111.445 101.96C110.568 103.016 109.891 104.276 109.417 105.741C108.937 107.212 108.696 108.849 108.692 110.653ZM113.698 110.718C113.703 109.214 113.913 107.93 114.323 106.868C114.73 105.803 115.303 104.993 116.039 104.427C116.772 103.868 117.636 103.586 118.618 103.58C119.598 103.586 120.461 103.868 121.195 104.427C121.93 104.993 122.504 105.803 122.911 106.868C123.323 107.93 123.533 109.214 123.538 110.718C123.533 112.156 123.319 113.4 122.907 114.44C122.495 115.479 121.92 116.277 121.181 116.841C120.449 117.404 119.595 117.69 118.618 117.697C117.646 117.69 116.787 117.404 116.053 116.841C115.318 116.277 114.74 115.479 114.328 114.44C113.914 113.4 113.703 112.156 113.698 110.718ZM131.16 102.687V118.714C131.154 119.529 131.239 120.17 131.43 120.649C131.614 121.127 131.932 121.467 132.39 121.669C132.847 121.871 133.477 121.97 134.287 121.966H139.662C140.758 121.966 141.577 121.774 142.117 121.381C142.662 120.989 142.932 120.389 142.932 119.576C142.932 118.763 142.662 118.163 142.117 117.77C141.577 117.376 140.758 117.187 139.662 117.187H135.765V102.687C135.765 101.461 135.581 100.543 135.202 99.9365C134.822 99.3257 134.245 99.0224 133.463 99.0224C132.68 99.0224 132.103 99.3257 131.723 99.9365C131.344 100.543 131.16 101.461 131.16 102.687ZM148.991 118.589V102.687C148.991 101.461 148.806 100.543 148.426 99.9365C148.048 99.3257 147.469 99.0224 146.689 99.0224C145.906 99.0224 145.327 99.3257 144.946 99.9365C144.568 100.543 144.383 101.461 144.383 102.687V118.589C144.383 119.815 144.568 120.733 144.946 121.34C145.327 121.948 145.906 122.249 146.689 122.249C147.469 122.249 148.048 121.948 148.426 121.34C148.806 120.733 148.991 119.815 148.991 118.589ZM157.295 118.589V108.169L165.627 120.499C166.064 121.146 166.495 121.626 166.916 121.929C167.344 122.23 167.796 122.385 168.272 122.381C169.007 122.381 169.543 122.11 169.879 121.572C170.216 121.03 170.382 120.228 170.376 119.161V102.687C170.376 101.461 170.192 100.543 169.813 99.9365C169.433 99.3257 168.856 99.0224 168.073 99.0224C167.296 99.0224 166.716 99.3257 166.335 99.9365C165.959 100.543 165.769 101.461 165.769 102.687V113.298L157.266 100.711C157.025 100.352 156.778 100.048 156.531 99.7988C156.286 99.5536 156.025 99.3687 155.746 99.2418C155.47 99.1192 155.161 99.0547 154.82 99.0547C154.085 99.0547 153.547 99.3472 153.199 99.9257C152.854 100.502 152.684 101.36 152.687 102.496V118.589C152.687 119.815 152.872 120.733 153.252 121.34C153.63 121.948 154.211 122.249 154.991 122.249C155.772 122.249 156.351 121.948 156.732 121.34C157.11 120.733 157.295 119.815 157.295 118.589Z" fill="#1B1918"/>
<path fill-rule="evenodd" clip-rule="evenodd" d="M55.2715 133.235H171.213V127.168H55.2715V133.235Z" fill="#FFEC00"/>
<path fill-rule="evenodd" clip-rule="evenodd" d="M55.2715 140.983H171.213V134.917H55.2715V140.983Z" fill="#00509E"/>
</svg>
