<svg width="191" height="160" viewBox="0 0 191 160" fill="none" xmlns="http://www.w3.org/2000/svg">
<path d="M89.8575 42.2032C122.969 42.2032 149.809 67.8217 149.809 103.751C149.809 125.531 139.943 146.097 124.795 158.919H151.677C175.103 144.37 190.999 116.128 190.999 84.0187C190.999 37.2531 157.283 0.00244141 115.693 0.00244141H40.9453V42.2032H89.8575Z" fill="#ED2127"/>
<path d="M73.8733 60.0596H40.9453V130.639H73.8733C92.0852 130.639 106.851 114.599 106.851 95.3503C106.851 76.1016 92.0852 60.0596 73.8733 60.0596Z" fill="#ED2127"/>
<path d="M6.57741 153.75H8.473C11.7337 153.75 13.7177 152.041 13.7177 148.034C13.7177 143.615 12.0593 142.437 8.32635 142.437H6.57741V153.75ZM0 158.7V137.487H9.36364C16.2365 137.487 20.5021 140.671 20.5021 147.651C20.5021 155.637 16.0295 158.7 9.18465 158.7H0Z" fill="#020303"/>
<path d="M23.3379 158.7V137.487H38.0217V141.999H29.7816V145.91H37.2173V149.983H29.7816V154.188H38.1856V158.7H23.3379Z" fill="#020303"/>
<path d="M41.1738 158.7V137.487H47.6865V153.531H56.1358V158.7H41.1738Z" fill="#020303"/>
<path d="M57.7656 137.487H64.7571V150.186C64.7571 152.278 65.3803 154.074 68.2528 154.074C70.7716 154.074 71.7205 152.483 71.7205 150.186V137.487H78.712V149.479C78.712 156.284 75.3348 159.258 68.2528 159.258C61.6474 159.258 57.7656 156.756 57.7656 149.449V137.487Z" fill="#020303"/>
<path d="M87.44 158.7H79.4414L88.3587 147.681L80.4614 137.487H89.0811L92.814 143.346L97.2004 137.487H104.371L96.465 147.681L105.059 158.7H96.8532L92.249 152.528L87.44 158.7Z" fill="#020303"/>
<path d="M174.617 153.761C175.363 153.761 175.865 153.456 175.865 152.797C175.865 152.218 175.425 151.847 174.785 151.847H173.217V153.761H174.617ZM172.244 150.979H174.906C176.398 150.979 176.9 151.961 176.9 152.651C176.9 153.682 176.199 154.42 175.179 154.486V154.518C175.697 154.709 176.079 155.256 176.581 156.109L177.31 157.346H176.124L175.591 156.35C174.83 154.919 174.541 154.646 173.797 154.646H173.217V157.346H172.244V150.979ZM174.694 149.13C172.106 149.13 170.023 151.334 170.023 154.067C170.023 156.802 172.106 159.019 174.694 159.019C177.28 159.019 179.38 156.802 179.38 154.067C179.38 151.334 177.28 149.13 174.694 149.13ZM174.694 159.999C171.591 159.999 169.094 157.346 169.094 154.067C169.094 150.787 171.591 148.15 174.694 148.15C177.797 148.15 180.308 150.787 180.308 154.067C180.308 157.346 177.797 159.999 174.694 159.999Z" fill="#ED2127"/>
<path d="M107.469 158.7V137.487H122.155V141.999H113.915V145.91H121.35V149.983H113.915V154.188H122.316V158.7H107.469Z" fill="#020303"/>
</svg>
