<svg width="160" height="146" viewBox="0 0 160 146" fill="none" xmlns="http://www.w3.org/2000/svg">
<path d="M21.0271 91.1331L34.0019 54.8667H32.0133L19.0059 91.1331H21.0271Z" fill="#BF2519"/>
<path d="M24.32 91.1331L37.3274 54.8667H35.3062L22.2988 91.1331H24.32Z" fill="#BF2519"/>
<path d="M27.613 91.1331L40.6204 54.8667H38.5992L25.5918 91.1331H27.613Z" fill="#BF2519"/>
<path d="M30.9046 91.1331L43.912 54.8667H41.8908L28.916 91.1331H30.9046Z" fill="#BF2519"/>
<path d="M57.7992 91.1331L68.2638 61.9623H68.2312H78.7936L81.369 54.8667H45.9002L43.3574 61.9915H56.1692L45.7046 91.1331H57.7992Z" fill="#BF2519"/>
<path d="M125.999 54.8667L117.686 70.1091L117.099 71.1603C117.099 71.1603 115.73 73.9051 115.372 74.8103C115.046 75.7155 114.654 76.5331 114.654 76.5331C114.654 76.5331 114.915 75.0147 115.046 73.9051C115.176 72.7955 115.274 71.6275 115.339 70.7223L115.372 69.8755L116.024 54.8959H103.701L95.1922 68.9703C95.1922 68.9703 94.7684 69.6419 94.5402 70.0215C94.5402 70.0215 93.986 70.9851 93.5622 71.7151C93.171 72.4743 92.845 72.9999 92.356 74.1387C91.9974 74.9271 91.4758 76.3579 91.4758 76.3579C91.4758 76.3579 91.8996 74.6935 92.0952 73.7883C92.2908 72.8247 92.3886 72.0363 92.3886 72.0363C92.4212 71.4815 92.5516 70.7515 92.5516 70.7515L94.2142 54.8959H81.9892L80.457 91.1331H92.2908L103.896 71.9779C103.896 71.9779 104.483 70.9851 104.679 70.6055C104.679 70.6055 105.168 69.8463 105.526 69.0579C105.885 68.2695 106.374 67.2183 106.374 67.2183C106.374 67.2183 106.211 68.1819 106.113 68.9411C106.048 69.4959 106.015 70.1383 106.015 70.1383C105.983 70.6055 105.95 71.6567 105.95 71.6567L105.461 91.1039H116.806L137.996 54.8667H125.999ZM115.632 89.3811H107.385L108.004 64.0939V62.7799C108.004 61.8455 107.613 62.1083 107.482 62.2835C107.352 62.4587 106.602 63.7727 106.276 64.3859C105.983 64.9699 103.864 68.5615 102.951 70.1091C102.038 71.6567 99.2672 76.2703 98.4848 77.5551C96.9526 80.0663 92.9428 86.4027 92.9428 86.4027L92.2256 87.5999L91.1498 89.4103H82.4782L83.9126 56.5603H92.193L91.8344 60.0351L91.704 61.2031C91.6388 61.9331 91.1172 67.0139 90.9542 68.8243C90.7912 70.6347 90.4652 73.5547 90.3022 74.9855C90.1392 76.4163 89.8132 78.2559 89.6502 79.4531C89.4872 80.6211 89.4546 81.1759 89.422 81.4679C89.3894 81.7599 89.7806 81.8767 90.0414 81.4679C90.2696 81.0299 91.5084 78.8107 92.3234 77.4675C93.1384 76.1243 94.0186 74.6351 94.0186 74.6351L94.7358 73.4671L104.972 56.5603H114.165L113.122 80.6795C113.122 81.1759 113.024 81.4679 113.122 81.6431C113.22 81.8183 113.513 81.7599 113.709 81.4095C113.839 81.1759 114.002 80.9423 114.002 80.9423L127.271 56.5603L134.899 56.5895L115.632 89.3811Z" fill="#BF2519"/>
</svg>
