<svg width="235" height="240" viewBox="0 0 235 240" fill="none" xmlns="http://www.w3.org/2000/svg">
<path d="M222.602 93.2761C200.039 80.5767 151.561 72 115.734 72H115.41C79.5831 72 31.0693 80.5767 8.54245 93.2761C6.66821 94.3436 7.46116 95.8528 8.83079 95.8528H222.277C223.683 95.8528 224.512 94.3067 222.602 93.2761Z" fill="#0050A0"/>
<path d="M156.606 103.988H148.676L135.232 132.736H143.63L145.649 128.025H158.949L160.967 132.736H169.365L156.606 103.988ZM148.316 121.657L152.209 112.491L156.173 121.657H148.316Z" fill="#0050A0"/>
<path d="M198.2 103.988V110.319H212.941L197.623 126.847V132.736H223.718V126.405H208.075L222.997 110.245V103.988H198.2Z" fill="#0050A0"/>
<path d="M124.6 132.736H132.458V103.988H125.934L115.95 118.417L105.966 103.988H99.4062V132.736H107.3V118.638L113.751 127.325H118.149L124.6 118.638V132.736Z" fill="#0050A0"/>
<path d="M172.465 103.988V132.736H194.559V126.405H180.719V103.988H172.465Z" fill="#0050A0"/>
<path d="M84.7372 103.988V114.884H74.9335V103.988H66.6797V132.736H74.9335V121.767H84.7372V132.736H93.0631V103.988H84.7372Z" fill="#0050A0"/>
<path d="M46.1718 122.54V114.147C46.1718 111.497 48.1181 109.767 51.0736 109.767C54.3535 109.767 56.0476 110.356 58.895 111.46L61.8865 106.196C58.6066 104.319 54.8581 103.362 51.0736 103.436C43.4325 103.436 37.918 107.117 37.918 112.969V123.755C37.918 129.571 43.4686 133.325 51.0736 133.325C54.8581 133.399 58.5706 132.479 61.8865 130.564L58.895 125.301C56.0115 126.405 54.3175 126.994 51.0736 126.994C48.1902 126.957 46.1718 125.411 46.1718 122.54Z" fill="#0050A0"/>
<path d="M25.7708 124.159C25.7708 126.037 23.5 127.251 19.6795 127.251C16.5438 127.178 13.408 126.515 10.5246 125.227L7.46094 130.27C11.3175 132.294 15.6066 133.325 19.9318 133.251C29.4832 133.251 33.8083 129.276 33.8083 124.049C33.8083 118.049 28.3298 116.061 22.4908 115.435C18.9947 115.067 16.5438 114.773 16.5438 112.417C16.5438 110.761 17.8413 109.472 21.1212 109.472C24.4011 109.472 26.4556 110.172 29.4111 111.349L32.4747 106.307C28.9425 104.356 24.9778 103.362 20.977 103.472C13.0836 103.472 8.61431 107.153 8.61431 112.27C8.61431 118.196 13.2639 120.626 19.5714 121.288C24.0767 121.767 25.7708 122.319 25.7708 124.159Z" fill="#0050A0"/>
<path d="M8.5776 143.448C31.1044 156.184 79.6182 164.687 115.445 164.724H115.769C151.56 164.724 200.074 156.147 222.637 143.448C224.511 142.38 223.682 140.871 222.348 140.871H8.86595C7.49631 140.834 6.70337 142.417 8.5776 143.448Z" fill="#0050A0"/>
</svg>
