<svg width="377" height="227" viewBox="0 0 377 227" fill="none" xmlns="http://www.w3.org/2000/svg">
<path d="M358.265 81.2953H358.554V81.0864H358.265V81.2953ZM356.82 81.9916H357.109V81.6435H356.82V81.9916ZM356.531 82.3398H356.82V82.1657H356.531V82.3398ZM355.085 82.5139H355.374V82.3398H355.085V82.5139ZM356.241 82.4443C356.126 82.3398 356.126 82.2702 356.068 82.1657C356.068 82.2702 356.068 82.4094 356.126 82.5139C356.184 82.5487 356.241 82.5835 356.241 82.6183H356.82C356.646 82.5835 356.531 82.5487 356.415 82.5139C356.357 82.4791 356.299 82.4791 356.241 82.4443ZM354.912 82.8969C354.969 82.9317 355.027 82.9665 355.027 83.0013C354.969 83.0361 354.912 83.0709 354.912 83.1058C354.969 83.1406 355.027 83.1754 355.027 83.2102C355.085 83.1754 355.143 83.1406 355.201 83.1058V82.9317C355.143 82.8969 355.085 82.862 355.027 82.8272C354.912 82.7576 354.912 82.7576 354.912 82.8969ZM353.293 83.0709H353.639V82.8969H353.293V83.0709ZM355.895 83.2798H356.241V83.1058H355.895V83.2798ZM351.269 83.4539H350.98V83.628H351.269V83.4539ZM353.177 83.628C353.235 83.6628 353.293 83.6976 353.293 83.7324C353.35 83.6976 353.408 83.6628 353.466 83.628C353.408 83.5932 353.35 83.5584 353.293 83.5235C353.235 83.5584 353.177 83.5932 353.177 83.628ZM352.714 83.8021H352.425V83.9762H352.714V83.8021ZM354.796 84.1502H355.085V83.8021H354.796V84.1502ZM353.003 84.1502H353.293V83.9762H353.003V84.1502ZM350.112 83.9762H349.823V84.1502H350.112V83.9762ZM350.806 84.1502C350.864 84.185 350.922 84.2199 350.98 84.2547C351.037 84.2199 351.095 84.185 351.153 84.1502C351.269 84.1154 351.442 84.0806 351.558 84.0458H350.98C350.922 84.0806 350.864 84.1154 350.806 84.1502ZM354.507 84.5332H354.796V84.3243H354.507V84.5332ZM353.003 84.3243H352.714V84.5332H353.003V84.3243ZM351.731 84.7073C351.789 84.7421 351.847 84.7769 351.905 84.8117C351.963 84.7769 352.02 84.7421 352.02 84.7073C352.078 84.6028 352.136 84.4984 352.194 84.3939C352.078 84.4636 352.02 84.4984 351.905 84.6028C351.789 84.6377 351.789 84.6725 351.731 84.7073ZM349.534 84.8814H349.823V84.7073H349.534V84.8814ZM348.956 84.6377C348.84 84.7421 348.782 84.8117 348.667 84.9162H349.245C349.129 84.8117 349.014 84.7073 348.956 84.6377ZM348.32 84.7073H348.031V84.8814H348.32V84.7073ZM346.007 84.7073H345.66V84.8814H346.007V84.7073ZM350.806 84.8814C350.748 84.8466 350.691 84.8117 350.633 84.7769C350.517 84.6725 350.344 84.6028 350.228 84.4984C350.17 84.4636 350.112 84.4288 350.055 84.3939C349.939 84.3243 349.939 84.3243 349.939 84.4984C349.997 84.5332 350.055 84.568 350.055 84.6028C350.228 84.7073 350.344 84.7769 350.459 84.8814C350.517 84.9162 350.575 84.951 350.575 84.9858C350.691 84.951 350.748 84.9162 350.806 84.8814ZM353.929 85.2295H354.218V85.0554H353.929V85.2295ZM350.112 85.2295H350.401V85.0554H350.112V85.2295ZM349.534 85.2295H349.823V85.0554H349.534V85.2295ZM350.691 85.4384H351.037V85.2643H350.691V85.4384ZM346.007 85.2295H345.66V85.4036H346.007V85.2295ZM348.32 85.2295H348.031V85.5777H348.32V85.2295ZM353.003 85.7866H353.293V85.6125H353.003V85.7866ZM351.847 85.7866H352.136V85.6125H351.847V85.7866ZM345.891 85.7866C345.776 85.891 345.776 85.891 346.007 85.891C346.065 85.8562 346.123 85.8214 346.123 85.7866C346.18 85.7518 346.238 85.717 346.296 85.6821C346.354 85.6473 346.412 85.6125 346.412 85.5777C346.47 85.6125 346.527 85.6473 346.585 85.6821C346.759 85.717 346.99 85.7518 347.163 85.7866C347.106 85.6821 347.048 85.5429 347.048 85.4384C346.99 85.4036 346.932 85.3688 346.874 85.334C346.932 85.2992 346.99 85.2643 347.048 85.2295C347.163 85.1947 347.337 85.1599 347.453 85.1251H346.874C346.816 85.1599 346.759 85.1947 346.759 85.2295C346.701 85.2643 346.643 85.2992 346.643 85.334C346.585 85.3688 346.527 85.4036 346.47 85.4384C346.412 85.4732 346.354 85.5081 346.354 85.5429C346.296 85.5777 346.238 85.6125 346.18 85.6473C346.123 85.6821 346.065 85.717 346.065 85.7518C346.007 85.717 345.949 85.7518 345.891 85.7866ZM349.534 85.6125H349.245V85.9955H349.534V85.6125ZM345.429 85.7866H345.14V85.9955H345.429V85.7866ZM344.099 85.9955C344.041 85.9258 343.983 85.891 343.983 85.891C343.925 85.9258 343.868 85.9607 343.81 85.9955C343.868 86.0303 343.925 86.0651 343.983 86.0999C344.041 86.0303 344.099 86.0303 344.099 85.9955ZM347.453 86.1696H347.742V85.9955H347.453V86.1696ZM349.534 86.3436H349.823V86.1696H349.534V86.3436ZM348.493 85.7866C348.435 85.9258 348.378 86.0999 348.378 86.274C348.32 86.3088 348.262 86.3436 348.204 86.3785C348.146 86.4133 348.089 86.4481 348.089 86.4829C348.031 86.5177 347.973 86.5525 347.915 86.5873C347.857 86.6222 347.799 86.657 347.799 86.6918C347.742 86.7266 347.684 86.7614 347.626 86.7962C347.51 86.9355 347.337 87.0748 347.221 87.2489C347.163 87.2837 347.106 87.3185 347.106 87.3533C347.048 87.3185 346.99 87.2837 346.932 87.2489H346.643C346.585 87.2837 346.527 87.3185 346.47 87.3533C346.527 87.3881 346.585 87.4229 346.643 87.4577C346.701 87.4229 346.759 87.3881 346.759 87.3533C346.816 87.3881 346.874 87.4229 346.874 87.4577H347.163C347.221 87.4229 347.279 87.3881 347.337 87.3533C347.51 87.4577 347.51 87.4577 347.915 87.2489C347.857 87.1444 347.799 87.0051 347.799 86.9007C347.857 86.8659 347.915 86.8311 347.915 86.7962C347.973 86.7614 348.031 86.7266 348.089 86.6918C348.146 86.657 348.204 86.6222 348.204 86.5873C348.262 86.5525 348.32 86.5177 348.378 86.4829C348.435 86.4481 348.493 86.4133 348.551 86.3785C348.667 86.274 348.725 86.2044 348.84 86.0999C348.667 85.9607 348.551 85.8562 348.493 85.7866ZM347.163 86.5177H347.453V86.3436H347.163V86.5177ZM343.231 86.5177C343.289 86.5525 343.347 86.5873 343.405 86.6222C343.463 86.7266 343.521 86.7962 343.578 86.9007C343.636 86.7962 343.694 86.7266 343.694 86.6222C343.752 86.5873 343.81 86.5525 343.81 86.5177C343.752 86.4829 343.694 86.4481 343.694 86.4133C343.636 86.4481 343.578 86.4829 343.578 86.5177C343.521 86.4829 343.463 86.4481 343.405 86.4133H343.058C343 86.4481 342.942 86.4829 342.885 86.5177C342.942 86.5525 343 86.5873 343.058 86.6222C343.116 86.5873 343.174 86.5525 343.231 86.5177ZM346.585 86.6918H346.874V86.3436H346.585V86.6918ZM345.544 86.6918C345.718 86.5873 345.949 86.4481 346.18 86.3436C345.891 86.274 345.66 86.2392 345.429 86.1696V86.6222C345.371 86.657 345.313 86.6918 345.255 86.7266C345.197 86.6918 345.14 86.657 345.14 86.6222C345.024 86.5525 344.966 86.5177 344.851 86.4481C344.908 86.4133 344.966 86.3785 345.024 86.3436C344.966 86.3088 344.908 86.274 344.851 86.2392C344.793 86.274 344.735 86.3088 344.735 86.3436C344.619 86.4829 344.561 86.6222 344.504 86.8311C344.677 86.7614 344.851 86.7266 345.024 86.7266C345.082 86.7614 345.14 86.7962 345.14 86.8311C345.197 86.9355 345.255 87.0051 345.255 87.1096C345.313 87.0051 345.371 86.9355 345.429 86.8311C345.487 86.7614 345.487 86.7266 345.544 86.6918ZM340.456 86.6918H340.167V86.8659H340.456V86.6918ZM343.058 86.8659H342.769V87.04H343.058V86.8659ZM349.65 87.04C349.592 87.0051 349.534 86.9703 349.534 86.9355V86.4829C349.245 86.4829 349.245 86.4829 349.361 87.0051C349.418 87.04 349.476 87.0748 349.534 87.1096C349.592 87.1096 349.592 87.0748 349.65 87.04ZM348.667 87.214H348.956V87.04H348.667V87.214ZM344.561 87.04H344.272V87.214H344.561V87.04ZM341.092 87.214H340.803V87.3881H341.092V87.214ZM340.167 87.214H339.878V87.3881H340.167V87.214ZM349.534 87.597H349.823V87.3881H349.534V87.597ZM345.429 87.597H345.718V87.214H345.429V87.597ZM348.031 87.7711H348.32V87.597H348.031V87.7711ZM346.585 87.597H346.296V87.7711H346.585V87.597ZM344.561 87.597H344.272V87.7711H344.561V87.597ZM343.405 87.98H343.983V87.8059H343.405V87.98ZM340.167 87.7711H339.878V87.9452H340.167V87.7711ZM339.01 87.7711H338.721V87.9452H339.01V87.7711ZM346.296 88.1541H346.874V87.98H346.296V88.1541ZM345.429 88.3281H345.718V87.8059H345.429V88.3281ZM344.561 88.3281C344.735 88.2585 344.85 88.2237 344.966 88.1541C344.793 88.0844 344.677 88.0496 344.561 87.98V88.3281ZM343.231 88.3281C343.289 88.363 343.347 88.3978 343.405 88.4326C343.463 88.3978 343.521 88.363 343.578 88.3281C343.521 88.2933 343.463 88.2585 343.405 88.2237C343.231 88.1889 343.231 88.1889 343.231 88.3281ZM339.3 88.3281H339.878V88.1541H339.3V88.3281ZM336.235 88.3281V87.98C336.177 88.0844 336.119 88.1541 336.119 88.2585C336.062 88.2933 336.004 88.3281 335.946 88.363C336.004 88.3978 336.062 88.4326 336.119 88.4674C336.119 88.363 336.177 88.363 336.235 88.3281ZM340.803 88.5022H341.092V88.1541H340.803V88.5022ZM337.102 88.5022C337.16 88.537 337.218 88.5719 337.276 88.6067C337.738 88.7111 337.738 88.7111 337.565 88.6067C337.623 88.5719 337.681 88.537 337.681 88.5022C337.97 88.4326 338.259 88.3978 338.606 88.3281C338.317 88.1889 338.085 88.0496 337.854 87.8755C337.912 87.8407 337.97 87.8059 337.97 87.7711C338.143 87.8755 338.143 87.8755 338.432 87.6666C338.49 87.6318 338.548 87.597 338.548 87.5622H339.242V87.9104C339.531 87.9104 339.531 87.9104 339.3 87.2837C338.606 87.2837 338.606 87.2837 338.374 87.4229C338.317 87.4577 338.259 87.4926 338.201 87.5274C338.028 87.4229 337.97 87.3881 337.854 87.3185C337.796 87.2837 337.738 87.2489 337.738 87.214C337.681 87.2489 337.623 87.2837 337.565 87.3185C337.623 87.3533 337.681 87.3881 337.738 87.4229V87.6318C337.681 87.6666 337.623 87.7015 337.565 87.7363C337.507 87.9452 337.449 88.1541 337.449 88.363C337.391 88.3978 337.334 88.4326 337.276 88.4674C337.218 88.4326 337.16 88.3978 337.16 88.363C337.102 88.3281 337.045 88.2933 336.987 88.2585C336.929 88.2237 336.871 88.1889 336.813 88.1541C336.871 88.1192 336.929 88.0844 336.987 88.0496C336.929 88.0148 336.871 87.98 336.813 87.9452C336.755 87.98 336.698 88.0148 336.698 88.0496V88.2237C336.755 88.2585 336.813 88.2933 336.813 88.3281C336.987 88.4326 337.045 88.4674 337.102 88.5022ZM342.769 88.3978C342.653 88.2237 342.595 88.0496 342.48 87.8755C342.364 87.9452 342.306 87.98 342.191 88.0496C342.133 88.0844 342.075 88.1192 342.075 88.1541C341.902 88.0496 341.786 87.98 341.67 87.8755C341.728 87.8407 341.786 87.8059 341.844 87.7711C341.902 87.7363 341.959 87.7015 341.959 87.6666C342.017 87.6318 342.075 87.597 342.133 87.5622C342.191 87.4926 342.249 87.4577 342.249 87.4577C342.306 87.4229 342.364 87.3881 342.422 87.3533C342.48 87.3881 342.538 87.4229 342.538 87.4577C342.827 87.4926 343.116 87.5274 343.463 87.5622C343.347 87.4577 343.289 87.3185 343.174 87.214C343 87.2489 342.827 87.3185 342.711 87.3533C342.653 87.3185 342.595 87.2837 342.595 87.2489C342.538 87.214 342.48 87.1792 342.48 87.1444C342.422 87.1096 342.364 87.0748 342.306 87.04C342.249 86.9355 342.191 86.8659 342.191 86.7614C342.133 86.7266 342.075 86.6918 342.017 86.657C342.075 86.6222 342.133 86.5873 342.191 86.5525C342.248 86.5177 342.306 86.4829 342.306 86.4481C342.364 86.4133 342.422 86.3785 342.48 86.3436C342.422 86.3088 342.364 86.274 342.306 86.2392C342.249 86.274 342.191 86.3088 342.191 86.3436C342.133 86.3785 342.075 86.4133 342.017 86.4481C341.959 86.4829 341.902 86.5177 341.902 86.5525V86.7266C341.959 86.7614 342.017 86.7962 342.017 86.8311C341.902 86.9007 341.844 86.9355 341.728 87.0051C341.67 87.04 341.612 87.0748 341.612 87.1096C341.67 87.1444 341.728 87.1792 341.728 87.214C341.786 87.1792 341.844 87.1444 341.902 87.1096H342.191C342.248 87.1444 342.306 87.1792 342.306 87.214C342.249 87.2489 342.191 87.2837 342.191 87.3185C342.133 87.3533 342.075 87.3881 342.017 87.4229C341.959 87.4577 341.902 87.4926 341.902 87.5274C341.844 87.5622 341.786 87.597 341.728 87.6318C341.67 87.6666 341.612 87.7015 341.612 87.7363C341.381 87.7015 341.15 87.6666 340.919 87.6318C340.803 87.6666 340.745 87.7015 340.745 87.7363C340.803 87.7711 340.861 87.8059 340.919 87.8407C340.976 87.8059 341.034 87.7711 341.092 87.7363C341.208 87.9104 341.381 88.0844 341.497 88.2585H342.191C342.248 88.2933 342.306 88.3281 342.306 88.363C342.48 88.3978 342.595 88.4326 342.711 88.4674C342.769 88.5022 342.827 88.537 342.885 88.5719C343.289 88.92 343.289 88.92 343.636 88.8504C343.405 88.7459 343.231 88.6067 343 88.5022C342.885 88.4674 342.827 88.4326 342.769 88.3978ZM343.983 88.6763H344.272V88.5022H343.983V88.6763ZM342.364 88.8504C342.306 88.8156 342.248 88.7808 342.191 88.7459C342.133 88.7808 342.075 88.8156 342.075 88.8504C342.133 88.8852 342.191 88.92 342.191 88.9548C342.248 88.92 342.306 88.8852 342.364 88.8504ZM346.007 89.0245H346.296V88.8504H346.007V89.0245ZM332.534 88.8504H332.245V89.0245H332.534V88.8504ZM343.694 89.2334H343.983V89.0245H343.694V89.2334ZM330.221 89.0245H329.932V89.2334H330.221V89.0245ZM342.48 89.2334H342.191V89.4074H342.48V89.2334ZM332.534 89.2334H332.245V89.4074H332.534V89.2334ZM343.694 89.5815H343.983V89.4074H343.694V89.5815ZM341.902 89.2334C341.728 89.2682 341.497 89.303 341.381 89.3378C341.439 89.4423 341.497 89.6163 341.612 89.7556C341.902 89.7556 341.902 89.7556 341.902 89.2334ZM330.568 89.5815H330.221V89.7556H330.568V89.5815ZM342.48 89.86C342.422 89.8949 342.364 89.9297 342.364 89.9645V90.3127C342.422 90.2082 342.48 90.1386 342.48 90.0341C342.538 89.9993 342.595 89.9645 342.595 89.9297H343.347C343.405 89.7556 343.405 89.7556 342.48 89.86ZM341.092 89.9297H341.381V89.7556H341.092V89.9297ZM340.456 89.0245C340.456 88.8504 340.456 88.8504 341.67 88.8504C341.555 88.7459 341.497 88.6067 341.439 88.537C341.092 88.5719 340.745 88.6415 340.456 88.6763V88.1541C340.167 88.1541 340.167 88.1541 340.167 88.5022C339.473 88.6067 338.837 88.6763 338.143 88.7808C338.432 88.8504 338.721 88.8852 339.01 88.9548C338.953 88.9896 338.895 89.0245 338.895 89.0593C338.779 89.0941 338.606 89.1289 338.49 89.1637H339.068C339.126 89.1289 339.184 89.0941 339.242 89.0593C339.647 88.7111 339.647 88.7111 340.225 88.7111C340.109 88.9896 340.051 89.2682 339.993 89.5815C339.762 89.6163 339.589 89.686 339.357 89.7208C339.3 89.7556 339.242 89.7904 339.242 89.8252C338.779 89.686 338.317 89.5467 337.912 89.3726C337.97 89.3378 338.027 89.303 338.027 89.2682C337.97 89.1985 337.912 89.1637 337.912 89.1637C337.854 89.1985 337.796 89.2334 337.738 89.2682C337.681 89.1985 337.623 89.1637 337.623 89.1637H337.334C337.276 89.1985 337.218 89.2334 337.16 89.2682C337.102 89.1985 337.045 89.1637 336.987 89.1637C336.929 89.0593 336.871 88.9896 336.871 88.8852C336.524 88.8504 336.177 88.8156 335.888 88.7808C336.351 88.9896 336.351 88.9896 336.177 89.1289C336.119 89.1637 336.062 89.1985 336.004 89.2334C335.83 89.3378 335.83 89.3378 335.252 89.1289C335.079 89.2334 334.847 89.3726 334.674 89.5119C334.5 89.4423 334.269 89.4074 334.096 89.3378C334.153 89.303 334.211 89.2682 334.211 89.2334V89.0245C334.153 88.9896 334.096 88.9548 334.096 88.92H333.806C333.749 88.9548 333.691 88.9896 333.633 89.0245V89.2334C333.691 89.2682 333.749 89.303 333.806 89.3378C333.46 89.3726 333.17 89.4074 332.881 89.4423C332.939 89.5467 332.997 89.6163 333.113 89.7556C333.286 89.7208 333.517 89.7208 333.806 89.7208C333.749 89.7556 333.691 89.7904 333.633 89.8252C333.691 89.86 333.749 89.8949 333.806 89.9297C333.864 89.8949 333.922 89.86 333.922 89.8252C334.616 89.9297 335.715 89.7208 336.004 89.8252C336.062 89.86 336.119 89.8949 336.177 89.9297C336.119 89.9645 336.062 89.9993 336.004 90.0341C336.062 90.0689 336.119 90.1038 336.177 90.1386C336.235 90.1038 336.293 90.0689 336.293 90.0341C336.524 90.1386 336.524 90.1386 336.466 90.7304C336.698 90.6608 336.929 90.626 337.218 90.5912C337.102 90.4519 337.045 90.3127 337.045 90.2082C337.218 90.1734 337.449 90.1386 337.623 90.1038C337.681 90.0689 337.738 90.0341 337.738 89.9993C337.912 90.1038 337.912 90.1038 338.201 89.8949C338.259 89.8601 338.317 89.8252 338.374 89.7904C338.606 89.8949 338.837 89.9645 339.068 90.0689C339.184 89.9993 339.242 89.9645 339.357 89.8949C339.415 89.8601 339.473 89.8252 339.531 89.7904C339.647 89.8252 339.82 89.8601 339.936 89.8949C339.878 89.9297 339.82 89.9645 339.82 89.9993C339.762 90.1038 339.704 90.243 339.647 90.3475H338.49C338.49 90.5216 338.49 90.5216 339.357 90.5216V90.9045C339.647 90.9045 339.647 90.9045 339.82 90.5564C339.878 90.5912 339.936 90.6608 340.051 90.6956C340.109 90.7304 340.167 90.7653 340.167 90.8001C340.225 90.9045 340.283 90.9742 340.34 91.0786C340.398 91.1134 340.456 91.1482 340.456 91.1831C340.514 91.1482 340.572 91.1134 340.629 91.0786C340.572 91.0438 340.514 91.009 340.456 90.9742C340.629 90.8349 340.629 90.8349 340.34 90.6608C340.283 90.626 340.225 90.5912 340.167 90.5564C340.051 90.3823 339.993 90.2082 339.878 90.0341C339.936 89.9993 339.993 89.9645 340.051 89.9297H340.803C340.687 89.7904 340.63 89.6512 340.514 89.5119C340.63 89.4074 340.803 89.2682 340.919 89.1985C340.745 89.1637 340.572 89.0941 340.456 89.0245ZM332.534 89.7556H332.245V89.9297H332.534V89.7556ZM329.354 89.7556H329.065V89.9297H329.354V89.7556ZM328.776 89.7556H328.487V89.9297H328.776V89.7556ZM331.262 90.1386C331.32 90.1734 331.378 90.2082 331.378 90.243C331.609 90.2082 331.841 90.1734 332.072 90.1386H331.494C331.436 90.1038 331.378 90.0689 331.32 90.0341C331.262 89.9297 331.204 89.86 331.204 89.7556C331.147 89.7208 331.089 89.686 331.031 89.6512C331.089 89.6163 331.147 89.5815 331.204 89.5467C331.147 89.5119 331.089 89.4771 331.031 89.4423C330.973 89.4771 330.915 89.5119 330.915 89.5467V89.7208C330.973 89.7556 331.031 89.7904 331.031 89.8252C331.147 89.9297 331.205 90.0341 331.262 90.1386ZM330.221 90.1386H330.568V89.9645H330.221V90.1386ZM340.456 90.4867H340.803V90.3127H340.456V90.4867ZM327.62 90.3127H327.041V90.4867H327.62V90.3127ZM341.612 90.6608H342.191V90.4867H341.612V90.6608ZM338.721 90.6608H338.432V90.8697H338.721V90.6608ZM337.796 90.3127C337.507 90.3127 337.507 90.3127 337.507 90.8697C337.623 90.8001 337.854 90.7653 338.027 90.6956C337.97 90.5216 337.854 90.4171 337.796 90.3127ZM335.83 91.0786C335.83 90.8697 335.888 90.6608 335.946 90.4867C335.715 90.6608 335.541 90.8349 335.31 91.0438C335.252 91.009 335.194 90.9742 335.194 90.9393C335.31 90.626 335.31 90.626 335.021 89.9297C334.847 90.1038 334.616 90.2778 334.443 90.4519C334.385 90.4171 334.327 90.3823 334.269 90.3475C333.98 90.2778 333.691 90.243 333.402 90.1734C333.633 90.2778 333.864 90.3475 334.096 90.4519C334.153 90.4867 334.211 90.5216 334.269 90.5564C334.5 90.6956 334.732 90.8697 334.963 91.0438C335.021 91.0786 335.079 91.1134 335.136 91.1482C335.079 91.183 335.021 91.2179 334.963 91.2527C334.905 91.2875 334.847 91.3223 334.847 91.3571C334.789 91.3919 334.732 91.4268 334.674 91.4616C334.732 91.4964 334.789 91.5312 334.847 91.566C334.905 91.5312 334.963 91.4964 334.963 91.4616C335.021 91.4964 335.079 91.5312 335.136 91.566V91.7401C335.079 91.7749 335.021 91.8097 334.963 91.8446V92.0186C335.021 92.0534 335.079 92.0883 335.136 92.1231L335.252 92.0186C335.194 91.9838 335.136 91.949 335.136 91.9142C335.194 91.8794 335.252 91.8446 335.252 91.8097C335.425 91.8097 335.425 91.4616 335.252 91.4616C335.194 91.4268 335.136 91.3919 335.136 91.3571C335.194 91.3223 335.252 91.2875 335.252 91.2527C335.483 91.1482 335.657 91.1134 335.83 91.0786ZM328.198 91.0438H327.909V91.2179H328.198V91.0438ZM339.3 91.3919H339.589V91.2179H339.3V91.3919ZM338.432 91.3919H338.721V91.2179H338.432V91.3919ZM326.752 91.2179H326.463V91.3919H326.752V91.2179ZM323.803 91.3223C323.688 91.4268 323.63 91.4964 323.514 91.6008H324.092C324.035 91.4964 323.919 91.3919 323.803 91.3223ZM333.922 91.566C333.864 91.1831 333.806 90.8349 333.806 90.4867C333.517 90.4867 333.517 90.4867 333.517 91.0438C333.228 90.9742 332.939 90.9393 332.65 90.9045C332.766 90.6956 332.824 90.5216 332.939 90.3475C332.766 90.4519 332.592 90.5564 332.477 90.6608C332.419 90.626 332.361 90.5912 332.361 90.5564C331.667 90.5912 331.204 90.8697 330.279 90.8697C330.453 90.6608 330.684 90.4867 330.915 90.3127H329.701V90.8001C329.643 90.8349 329.585 90.8697 329.528 90.9045C329.47 90.7653 329.412 90.626 329.412 90.5216C329.123 90.5216 329.123 90.5215 329.123 91.009C329.065 91.0438 329.007 91.0786 329.007 91.1134C328.949 91.0786 328.892 91.0438 328.834 91.009C328.776 91.0438 328.718 91.0786 328.718 91.1134C328.776 91.1482 328.834 91.1831 328.834 91.2179H329.123C329.181 91.1831 329.239 91.1482 329.239 91.1134C329.412 91.0786 329.528 91.0438 329.643 91.009C329.701 90.9742 329.759 90.9393 329.817 90.9045C329.875 91.2179 329.932 91.4964 329.99 91.8097C330.164 91.8794 330.395 91.949 330.568 92.0534C330.337 92.1231 330.164 92.1579 329.932 92.2275C329.875 92.2623 329.817 92.2972 329.817 92.332H329.412V92.715H329.817C329.875 92.7498 329.932 92.7846 329.932 92.8194V93.3416C329.875 93.3765 329.817 93.4113 329.817 93.4461V93.7942C329.875 93.8291 329.932 93.8639 329.932 93.8987C330.106 93.9335 330.337 93.9683 330.568 94.0031C330.453 93.8987 330.395 93.7594 330.279 93.6898C330.164 93.7246 330.106 93.7942 330.106 93.8291C330.048 93.7942 329.99 93.7594 329.932 93.7246V93.5505C329.99 93.5157 330.048 93.4809 330.106 93.4461C330.337 93.3416 330.568 93.272 330.858 93.1676C330.915 93.1327 330.973 93.0979 331.031 93.0631C331.436 92.9935 331.783 92.9587 332.187 92.889C332.245 92.9238 332.303 92.9587 332.303 92.9935C332.187 93.0631 332.13 93.0979 332.014 93.1676C331.956 93.2024 331.898 93.2372 331.841 93.272C331.898 93.3068 331.956 93.3416 332.014 93.3765C332.072 93.3416 332.13 93.3068 332.187 93.272H332.881V92.9238H332.477C332.419 92.889 332.361 92.8542 332.361 92.8194C331.667 92.332 331.551 91.9838 330.915 91.9142C330.973 91.8794 331.031 91.8446 331.089 91.8097C331.378 91.7401 331.667 91.7053 331.956 91.6357C332.014 91.6705 332.072 91.7053 332.13 91.7401C332.072 91.8794 332.014 92.0534 331.956 92.1927C332.245 92.2972 332.245 92.2972 332.939 92.0883C332.419 91.8446 332.419 91.8446 332.65 91.7401C332.708 91.7053 332.766 91.6705 332.766 91.6357H333.402C333.46 91.6705 333.517 91.7053 333.517 91.7401C333.575 91.8794 333.633 92.0534 333.691 92.1927C333.749 92.2275 333.806 92.2624 333.864 92.2972C333.922 92.2624 333.98 92.2275 333.98 92.1927C333.922 92.1579 333.864 92.1231 333.864 92.0883V91.7401C333.806 91.6357 333.864 91.6008 333.922 91.566ZM338.721 91.7401H339.01V91.566H338.721V91.7401ZM337.565 91.4964C337.623 91.566 337.738 91.6357 337.796 91.7401C337.912 91.6705 338.085 91.6357 338.259 91.566C338.027 91.5312 337.796 91.4964 337.565 91.4964ZM336.119 91.4964C336.062 91.5312 336.004 91.566 335.946 91.6008V91.949C336.004 91.8446 336.062 91.7749 336.119 91.6705C336.177 91.6357 336.235 91.6008 336.235 91.566C336.408 91.566 336.64 91.566 336.871 91.6008C336.755 91.392 336.64 91.2179 336.524 91.0438C336.408 91.1831 336.235 91.3223 336.119 91.4964ZM327.33 91.566H326.463V91.7401H327.33V91.566ZM320.912 91.7401H320.623V91.9142H320.912V91.7401ZM319.409 91.7401H319.12V91.9142H319.409V91.7401ZM318.541 91.7401H318.252V91.9142H318.541V91.7401ZM334.616 91.9142H334.327V92.0883H334.616V91.9142ZM321.664 91.7749C321.49 91.8794 321.317 91.9838 321.201 92.0883H322.358C322.358 91.9142 322.358 91.9142 321.664 91.7749ZM336.408 92.2972H336.698V92.1231H336.408V92.2972ZM317.674 92.0883H317.327V92.2623H317.674V92.0883ZM318.426 92.2972C318.484 92.332 318.541 92.3668 318.541 92.4016C318.715 92.3668 318.946 92.3668 319.12 92.3668C318.946 92.332 318.831 92.2972 318.715 92.2623C318.657 92.2275 318.599 92.1927 318.541 92.1579C318.541 92.2275 318.484 92.2624 318.426 92.2972ZM338.143 92.4712H338.432V92.2623H338.143V92.4712ZM334.616 92.4712H334.905V92.2623H334.616V92.4712ZM316.229 92.2972H315.939V92.5061H316.229V92.2972ZM333.633 92.6801C333.575 92.6453 333.517 92.6105 333.46 92.5757C333.402 92.5409 333.344 92.5061 333.344 92.4712C333.286 92.4364 333.228 92.4016 333.228 92.3668C333.055 92.2972 333.055 92.2972 333.055 92.4712C333.113 92.5061 333.17 92.5409 333.228 92.5757C333.286 92.6105 333.344 92.6453 333.344 92.6801C333.402 92.715 333.46 92.7498 333.46 92.7846H333.749C333.806 92.7498 333.864 92.715 333.864 92.6801C333.806 92.6453 333.749 92.6105 333.749 92.5757C333.691 92.6105 333.633 92.6453 333.633 92.6801ZM314.147 93.0283H313.858V93.2024H314.147V93.0283ZM310.678 93.2024H310.389V93.3765H310.678V93.2024ZM332.534 93.7246H332.823V93.5505H332.534V93.7246ZM311.545 93.5505H311.256V93.7246H311.545V93.5505ZM310.678 93.7246H310.967V93.5505H310.678V93.7246ZM331.841 93.7246C331.783 93.6898 331.725 93.655 331.725 93.6202C331.667 93.5854 331.609 93.5505 331.609 93.5157C331.551 93.4809 331.494 93.4461 331.436 93.4113C331.378 93.4461 331.32 93.4809 331.32 93.5157C331.378 93.5505 331.436 93.5854 331.436 93.6202C331.494 93.655 331.551 93.6898 331.609 93.7246C331.667 93.7594 331.725 93.7942 331.725 93.8291V94.1424C332.014 94.1424 332.014 94.1424 332.014 93.8291C332.072 93.7942 332.13 93.7594 332.187 93.7246C332.13 93.6898 332.072 93.655 332.014 93.6202C331.956 93.655 331.898 93.6898 331.841 93.7246ZM329.239 93.8987C329.181 93.8639 329.123 93.8291 329.123 93.7942C329.181 93.7594 329.239 93.7246 329.239 93.6898V93.5157C329.181 93.4809 329.123 93.4461 329.123 93.4113C329.065 93.3765 329.007 93.3416 329.007 93.3068C328.949 93.272 328.892 93.2372 328.834 93.2024C329.007 93.0979 329.007 93.0979 328.256 92.8542C328.313 92.8194 328.371 92.7846 328.429 92.7498C328.545 92.715 328.718 92.6801 328.834 92.6453C328.834 92.4016 328.834 92.1579 328.892 91.949C329.007 91.8794 329.123 91.8446 329.296 91.8446C329.354 91.8794 329.412 91.9142 329.47 91.949L329.585 91.8446C329.528 91.8097 329.47 91.7749 329.47 91.7401C329.239 91.7053 329.007 91.6705 328.776 91.6357C328.718 91.6008 328.66 91.566 328.602 91.5312C329.47 91.3571 329.47 91.3571 328.313 91.5312C328.256 91.566 328.198 91.6008 328.198 91.6357C328.14 91.6008 328.082 91.566 328.024 91.5312C327.851 91.4964 327.851 91.4964 327.909 91.6357C327.966 91.6705 328.024 91.7053 328.024 91.7401C328.082 91.7749 328.14 91.8097 328.198 91.8446L328.313 91.949H326.81C326.752 91.9838 326.694 92.0186 326.694 92.0534C326.637 92.0186 326.579 91.9838 326.521 91.949C326.405 91.9142 326.232 91.8794 326.116 91.8446C326.058 91.8097 326.001 91.7749 325.943 91.7401C326.001 91.7053 326.058 91.6705 326.116 91.6357C326.174 91.5312 326.232 91.392 326.232 91.2875H325.538C325.48 91.2527 325.422 91.2179 325.422 91.1831H324.786C324.728 91.2179 324.671 91.2527 324.613 91.2875C324.671 91.3223 324.728 91.3571 324.786 91.3919C324.844 91.3571 324.902 91.3223 324.902 91.2875H325.191C325.249 91.3223 325.307 91.3571 325.364 91.3919C325.249 91.4964 325.191 91.566 325.191 91.6705C325.364 91.7401 325.596 91.7749 325.827 91.8446L325.943 91.949V92.1231C325.885 92.1579 325.827 92.1927 325.827 92.2275C325.769 92.1927 325.711 92.1579 325.654 92.1231C324.96 92.0186 324.382 91.949 323.745 91.8446C323.688 91.8097 323.63 91.7749 323.63 91.7401H323.052C323.225 91.7749 323.341 91.8097 323.456 91.8446L323.63 91.949C323.745 92.0535 323.745 92.0535 323.052 92.5061C322.994 92.5409 322.936 92.5757 322.936 92.6105C322.762 92.5061 322.647 92.3668 322.531 92.2623C322.126 92.2972 321.779 92.332 321.375 92.3668C321.433 92.4712 321.49 92.5757 321.606 92.6801C321.548 92.715 321.49 92.7498 321.433 92.7846L321.143 92.6105C321.086 92.5757 321.028 92.5409 320.97 92.5061V92.0186C320.681 92.0186 320.681 92.0186 320.681 92.5061C320.623 92.5409 320.565 92.5757 320.507 92.6105H320.218C320.16 92.5757 320.103 92.5409 320.103 92.5061C320.16 92.4712 320.218 92.4364 320.218 92.4016C320.16 92.3668 320.103 92.332 320.103 92.2972C319.987 92.332 319.929 92.3668 319.929 92.4016C319.871 92.3668 319.814 92.332 319.756 92.2972V92.0883C319.814 92.0535 319.871 92.0186 319.929 91.9838C319.871 91.949 319.814 91.9142 319.756 91.8794C319.698 91.9142 319.64 91.949 319.582 91.9838V92.3668C319.64 92.4016 319.698 92.4364 319.756 92.4712C319.814 92.5061 319.871 92.5409 319.929 92.5757C319.987 92.6105 320.045 92.6453 320.103 92.6801C319.987 92.715 319.929 92.7498 319.929 92.7846C319.987 92.8194 320.045 92.8542 320.103 92.889C320.16 92.8542 320.218 92.8194 320.218 92.7846C320.276 93.0283 320.334 93.272 320.392 93.4809C320.103 93.4809 320.103 93.4809 320.103 93.1327C319.409 92.9935 319.409 92.9935 319.062 92.6105C318.946 92.889 318.773 93.1327 318.657 93.4113C318.599 93.4461 318.541 93.4809 318.541 93.5157H317.848V93.1676C318.079 93.0979 318.31 93.0631 318.599 93.0283C318.426 92.8194 318.368 92.6453 318.252 92.4712C318.079 92.6105 317.963 92.7846 317.848 92.9587C317.096 92.9587 317.096 92.9587 316.922 93.0979C316.865 93.1327 316.807 93.1676 316.749 93.2024C316.691 93.1676 316.633 93.1327 316.576 93.0979C316.518 93.0631 316.46 93.0283 316.46 92.9935C316.402 92.9587 316.344 92.9238 316.286 92.889C316.171 92.8542 315.997 92.8194 315.882 92.7846C315.824 92.7498 315.766 92.715 315.766 92.6801H315.477C315.419 92.715 315.361 92.7498 315.361 92.7846V92.9587C315.419 92.9935 315.477 93.0283 315.477 93.0631H315.766C315.824 93.0283 315.882 92.9935 315.882 92.9587H316.171C316.229 92.9935 316.286 93.0283 316.286 93.0631C316.229 93.0979 316.171 93.1327 316.171 93.1676V93.5157C316.229 93.5505 316.286 93.5854 316.286 93.6202C316.055 93.655 315.824 93.6898 315.593 93.7246C315.535 93.6898 315.477 93.655 315.419 93.6202C315.303 93.5157 315.188 93.3765 315.072 93.272C314.899 93.3765 314.667 93.5157 314.494 93.6202C314.436 93.655 314.378 93.6898 314.32 93.7246C314.263 93.6898 314.205 93.655 314.147 93.6202C314.089 93.655 314.031 93.6898 314.031 93.7246C314.089 93.7594 314.147 93.7942 314.147 93.8291H314.436C314.494 93.7942 314.552 93.7594 314.552 93.7246H315.188C315.246 93.7594 315.303 93.7942 315.303 93.8291C314.725 94.3861 313.684 94.0728 313.164 93.9335C312.991 94.038 312.933 94.1772 312.817 94.2817C312.759 94.2469 312.701 94.212 312.644 94.1772H312.354C312.297 94.212 312.239 94.2469 312.239 94.2817C312.123 94.2469 312.065 94.212 312.065 94.1772C312.008 94.212 311.95 94.2469 311.95 94.2817L312.065 94.3861C312.008 94.4209 311.95 94.4558 311.95 94.4906C311.776 94.595 311.661 94.6647 311.545 94.7691C311.487 94.8039 311.429 94.8387 311.372 94.8735C311.314 94.8387 311.256 94.8039 311.256 94.7691C310.851 94.4906 310.851 94.4906 309.81 94.4906C309.637 94.6995 309.579 94.9084 309.463 95.1173C309.406 95.1521 309.348 95.1869 309.29 95.2217H309.001C308.943 95.1869 308.885 95.1521 308.885 95.1173C308.654 95.0824 308.423 95.0476 308.191 95.0128C308.133 94.978 308.076 94.9432 308.076 94.9084C308.018 94.8735 307.96 94.8387 307.902 94.8039C307.844 94.7691 307.787 94.7343 307.787 94.6995H307.497C307.44 94.7343 307.382 94.7691 307.382 94.8039C307.035 94.8735 306.746 94.9084 306.457 94.978C306.572 95.0476 306.63 95.0824 306.746 95.1521C306.804 95.1869 306.861 95.2217 306.861 95.2565C306.746 95.361 306.688 95.5002 306.572 95.6395C306.514 95.6743 306.457 95.7091 306.457 95.7439C306.341 95.6047 306.283 95.4654 306.168 95.361C305.994 95.4654 305.878 95.5699 305.763 95.6743C305.589 95.535 305.589 95.535 305.878 95.1869C305.358 95.2565 304.895 95.2913 304.375 95.361C304.78 95.5699 305.127 95.7788 305.589 96.0225C305.474 96.1617 305.416 96.3358 305.3 96.4751C305.011 96.2662 304.78 96.0573 304.549 95.8484C304.433 95.918 304.375 95.9528 304.259 96.0225C304.144 95.918 304.086 95.8484 303.97 95.7439C303.739 95.7788 303.508 95.8136 303.276 95.8484C303.161 96.0225 303.161 96.2314 303.103 96.4403C302.409 96.3358 302.409 96.3358 301.31 96.5447C301.253 96.5795 301.195 96.6143 301.195 96.6492C300.212 96.5795 300.212 96.5795 300.501 96.7536C300.443 96.7884 300.385 96.8232 300.328 96.8581H299.749C299.691 96.8232 299.634 96.7884 299.634 96.7536C299.46 96.684 299.402 96.6492 299.287 96.5795C299.345 96.5447 299.402 96.5099 299.46 96.4751C299.576 96.3706 299.634 96.301 299.749 96.1965C299.634 96.0573 299.518 95.8832 299.402 95.7439C299.113 96.1965 299.113 96.1965 299.287 96.3706C299.229 96.4054 299.171 96.4403 299.113 96.4751H298.535C298.477 96.4403 298.419 96.4054 298.419 96.3706C298.188 96.4054 297.957 96.4403 297.726 96.4751C297.668 96.4403 297.61 96.4054 297.61 96.3706C296.858 96.4751 296.858 96.6492 295.702 96.8232C295.644 96.7884 295.586 96.7536 295.586 96.7188C295.413 96.684 295.297 96.6492 295.181 96.6143C295.297 96.684 295.355 96.7188 295.47 96.7884C295.528 96.8232 295.586 96.858 295.644 96.8929V97.0669C295.586 97.1018 295.528 97.1366 295.47 97.1714C295.297 97.067 295.297 97.0669 295.066 97.2758C295.008 97.3107 294.95 97.3455 294.892 97.3803C294.719 97.4847 294.719 97.4847 293.851 96.9973H294.487V96.5447C294.545 96.5099 294.603 96.4751 294.603 96.4403C294.777 96.4054 294.892 96.3706 295.008 96.3358H294.43C294.314 96.3706 294.314 96.4054 294.256 96.4403C293.909 96.5447 293.562 96.684 293.273 96.7884C293.215 96.684 293.158 96.5447 293.158 96.4403C293.1 96.4054 293.042 96.3706 292.984 96.3358C292.926 96.3706 292.868 96.4054 292.868 96.4403C292.926 96.4751 292.984 96.5099 292.984 96.5447C292.868 96.6492 292.811 96.7884 292.695 96.8929C292.637 96.9277 292.579 96.9625 292.579 96.9973C292.464 96.9277 292.406 96.8929 292.29 96.8232C292.232 96.7884 292.175 96.7536 292.175 96.7188H291.885C291.77 96.7536 291.712 96.7884 291.712 96.8232C291.654 96.7884 291.596 96.7536 291.539 96.7188H290.96C290.903 96.7536 290.845 96.7884 290.845 96.8232C290.671 96.7188 290.556 96.6492 290.44 96.5447V96.8929C290.382 96.9277 290.324 96.9625 290.324 96.9973C290.266 97.1018 290.209 97.241 290.209 97.3803C289.977 97.4151 289.746 97.4499 289.515 97.4847C289.515 97.3455 289.573 97.2062 289.63 97.0669C289.688 97.0321 289.746 96.9973 289.804 96.9625C289.746 96.9277 289.688 96.8929 289.63 96.8581C289.573 96.8929 289.515 96.9277 289.515 96.9625C289.341 96.9277 289.168 96.8929 289.052 96.8581C288.937 96.9625 288.879 97.1018 288.763 97.241C288.705 97.2758 288.647 97.3107 288.59 97.3455C288.532 97.3107 288.474 97.2758 288.416 97.241H288.127C288.069 97.2758 288.011 97.3107 288.011 97.3455C287.896 97.4151 287.838 97.4499 287.722 97.5196C287.664 97.4847 287.607 97.4499 287.549 97.4151C287.491 97.3803 287.433 97.3455 287.433 97.3107C287.375 97.2758 287.318 97.241 287.318 97.2062V96.8929C287.028 96.8929 287.028 96.8929 287.028 97.2062C286.971 97.241 286.913 97.2758 286.855 97.3107C286.739 97.3803 286.624 97.4151 286.508 97.4847C286.45 97.4499 286.392 97.4151 286.392 97.3803H285.814C285.756 97.4151 285.699 97.4499 285.641 97.4847C285.409 97.5892 285.178 97.6588 284.947 97.7633C285.12 97.8329 285.352 97.8677 285.525 97.9373C285.467 97.9722 285.409 98.007 285.352 98.0418H284.773C284.716 98.007 284.658 97.9722 284.658 97.9373V97.6588C284.426 97.6936 284.253 97.7284 284.022 97.7633C283.964 97.7981 283.906 97.8329 283.848 97.8677C283.675 97.7633 283.675 97.7633 283.848 98.0418C283.906 98.0766 283.964 98.1114 284.022 98.1462C283.039 98.3203 283.039 98.3203 281.882 98.2507C281.824 98.2159 281.767 98.1811 281.767 98.1462V97.6936H281.42V98.1462C281.362 98.1811 281.304 98.2159 281.246 98.2507C281.131 98.39 280.957 98.564 280.841 98.7381C280.668 98.6337 280.495 98.564 280.379 98.4944C278.991 98.8077 278.182 98.8426 277.025 98.7729V99.1211H276.447V98.7729H275.811V99.1211C275.522 99.1211 275.522 99.1211 275.291 98.8077C275.175 98.8426 275.117 98.9122 275.117 98.947C275.059 98.9122 275.001 98.8774 275.001 98.8426C274.944 98.8077 274.886 98.7729 274.828 98.7381C274.77 98.6685 274.712 98.6337 274.654 98.6337C274.712 98.5988 274.77 98.564 274.828 98.5292C274.886 98.4944 274.944 98.4596 275.001 98.4248C275.059 98.39 275.117 98.3551 275.117 98.3203C275.059 98.2855 275.001 98.2507 275.001 98.2159C274.944 98.2507 274.886 98.2855 274.828 98.3203C274.77 98.3551 274.712 98.39 274.654 98.4248C274.597 98.4596 274.539 98.4944 274.539 98.5292C274.481 98.564 274.423 98.5988 274.365 98.6337C274.308 98.6685 274.25 98.7033 274.25 98.7381V98.9122C274.308 98.947 274.365 98.9818 274.365 99.0166C274.308 99.0515 274.25 99.0863 274.25 99.1211H273.209C273.382 99.5041 273.382 99.5041 273.035 99.6433C272.978 99.6085 272.92 99.5737 272.92 99.5389V99.2604H272.053V99.7826C271.706 99.6781 271.416 99.5389 271.127 99.4344V99.7826C270.838 99.7826 270.838 99.7826 270.723 99.4344C270.665 99.3996 270.607 99.3648 270.607 99.33C270.665 99.2952 270.723 99.2604 270.723 99.2255V99.0515C270.665 99.0166 270.607 98.9818 270.607 98.947C270.549 98.9818 270.491 99.0166 270.433 99.0515C270.491 99.0863 270.549 99.1211 270.607 99.1559C270.549 99.1907 270.491 99.2255 270.433 99.2604C269.277 99.3648 269.508 99.2255 268.988 99.7826C268.93 99.7478 268.872 99.713 268.814 99.6781C268.814 99.5389 268.814 99.5389 268.063 99.2255C268.005 99.1907 267.947 99.1559 267.889 99.1211C267.831 99.0863 267.774 99.0515 267.774 99.0166C267.716 98.9818 267.658 98.947 267.6 98.9122C267.485 98.8426 267.427 98.8077 267.311 98.7381C267.369 98.8426 267.427 98.9122 267.427 99.0166C267.485 99.0515 267.542 99.0863 267.6 99.1211C267.542 99.1559 267.485 99.1907 267.427 99.2255C267.195 99.2604 266.964 99.2952 266.733 99.33V99.6781C266.559 99.6781 266.386 99.713 266.27 99.7478C266.212 99.713 266.155 99.6781 266.097 99.6433C265.981 99.5389 265.981 99.4692 265.923 99.3648C265.866 99.33 265.808 99.2952 265.75 99.2604C265.692 99.2952 265.634 99.33 265.634 99.3648C265.692 99.3996 265.75 99.4344 265.75 99.4693V99.6433C265.692 99.6781 265.634 99.713 265.634 99.7478C265.056 99.6433 265.056 99.6433 264.362 99.8522C264.304 99.887 264.247 99.9219 264.247 99.9567C264.304 99.9915 264.362 100.026 264.362 100.061C264.42 100.026 264.478 99.9915 264.536 99.9567C264.709 99.9567 264.709 99.9567 264.709 100.374C264.536 100.409 264.362 100.479 264.247 100.514C264.189 100.479 264.131 100.444 264.073 100.409C263.726 100.2 263.437 100.026 263.148 99.8522C263.032 99.9219 262.974 99.9567 262.859 100.026C262.801 100.061 262.743 100.096 262.743 100.131C262.685 100.096 262.628 100.061 262.57 100.026C262.512 100.061 262.454 100.096 262.454 100.131C262.512 100.166 262.57 100.2 262.57 100.235C262.628 100.27 262.685 100.305 262.743 100.34C262.801 100.374 262.859 100.409 262.859 100.444C262.917 100.479 262.974 100.514 263.032 100.549C263.09 100.583 263.148 100.618 263.148 100.653C263.09 100.757 263.032 100.827 263.032 100.932C262.974 100.897 262.917 100.862 262.859 100.827H262.57C262.512 100.862 262.454 100.897 262.454 100.932C262.281 100.897 262.049 100.862 261.876 100.827C261.76 100.932 261.702 101.001 261.587 101.106C261.934 101.071 262.281 101.036 262.57 101.001C262.628 100.966 262.685 100.932 262.743 100.897C262.801 100.932 262.859 100.966 262.859 101.001V101.175C262.801 101.21 262.743 101.245 262.743 101.28C262.685 101.314 262.628 101.349 262.57 101.384C262.512 101.419 262.454 101.454 262.454 101.489H261.76C261.529 101.697 261.355 101.906 261.124 102.15C261.066 101.802 261.066 101.802 260.43 101.523C260.43 101.906 260.488 102.289 260.546 102.672C260.488 102.707 260.43 102.742 260.372 102.777C260.315 102.881 260.257 103.02 260.257 103.125H260.835C260.835 103.299 260.835 103.299 260.257 103.299C260.257 103.473 260.893 103.612 261.182 103.961C261.124 103.995 261.066 104.03 261.008 104.065C260.604 103.995 260.315 103.961 259.968 103.891C260.141 104.03 260.372 104.169 260.546 104.343C260.488 104.378 260.43 104.413 260.372 104.448V104.622C260.43 104.657 260.488 104.692 260.546 104.726C260.43 104.796 260.372 104.831 260.257 104.901C260.141 104.796 260.083 104.726 259.968 104.622C259.679 104.622 259.679 104.622 259.679 105.179C259.91 105.284 260.141 105.423 260.372 105.527C260.43 105.562 260.488 105.597 260.546 105.632C260.662 105.701 260.719 105.736 260.835 105.806C260.777 105.841 260.719 105.875 260.662 105.91C260.546 105.945 260.372 105.98 260.257 106.015C260.372 106.049 260.546 106.084 260.662 106.119C260.719 106.154 260.777 106.189 260.835 106.224L259.968 106.398C260.141 106.467 260.372 106.502 260.604 106.607C260.777 106.467 261.008 106.328 261.182 106.224C261.24 106.189 261.298 106.154 261.298 106.119V105.841C261.24 105.806 261.182 105.771 261.182 105.736C261.587 105.701 262.049 105.666 262.454 105.632C262.512 105.666 262.57 105.701 262.57 105.736V106.432C262.512 106.467 262.454 106.502 262.454 106.537C262.396 106.711 262.338 106.885 262.338 107.094C262.57 107.164 262.801 107.198 263.032 107.268C263.09 107.303 263.148 107.338 263.148 107.372C263.09 107.407 263.032 107.442 263.032 107.477C263.09 107.512 263.148 107.547 263.148 107.581C263.206 107.547 263.264 107.512 263.321 107.477C263.379 107.442 263.437 107.407 263.495 107.372C263.553 107.338 263.61 107.303 263.668 107.268C263.842 107.198 264.073 107.164 264.247 107.094C264.304 107.129 264.362 107.164 264.362 107.198C264.478 107.547 264.536 107.895 264.651 108.278C264.593 108.312 264.536 108.347 264.478 108.382C264.536 108.417 264.593 108.452 264.651 108.487C264.709 108.452 264.767 108.417 264.767 108.382C265.114 108.104 265.461 107.825 265.75 107.547C265.808 107.512 265.866 107.477 265.923 107.442C266.039 107.547 266.212 107.616 266.386 107.721C266.328 107.755 266.27 107.79 266.27 107.825C266.27 107.964 266.27 108.138 266.328 108.313C266.386 108.243 266.444 108.208 266.559 108.173C266.617 108.208 266.675 108.243 266.675 108.278C266.733 108.208 266.791 108.173 266.791 108.173C266.733 108.138 266.675 108.104 266.675 108.069C266.733 108.034 266.791 107.999 266.791 107.964C266.849 107.86 266.906 107.79 266.964 107.686C267.022 107.651 267.08 107.616 267.138 107.581H267.427C267.485 107.616 267.542 107.651 267.6 107.686C267.311 108.521 267.6 108.521 267.6 107.964C267.947 107.895 268.294 107.86 268.641 107.79C268.699 107.825 268.757 107.86 268.757 107.895H269.046C269.104 107.86 269.161 107.825 269.219 107.79C269.277 107.686 269.335 107.616 269.335 107.512C269.393 107.477 269.451 107.442 269.508 107.407H269.913C269.971 107.581 270.029 107.755 270.029 107.93C270.087 107.964 270.144 107.999 270.202 108.034C270.26 108.138 270.318 108.243 270.376 108.347C270.78 108.278 271.243 108.243 271.648 108.208C271.416 108.138 271.243 108.104 271.012 108.034C271.07 107.999 271.127 107.964 271.185 107.93V107.755C271.07 107.721 271.07 107.686 271.012 107.651C271.416 107.547 271.879 107.477 272.342 107.372C272.399 107.407 272.457 107.442 272.457 107.477C272.573 107.651 272.631 107.825 272.746 107.999C272.689 108.034 272.631 108.069 272.573 108.104C272.631 108.138 272.689 108.173 272.746 108.208C272.804 108.138 272.862 108.104 272.862 108.104C272.978 108.034 273.035 107.999 273.151 107.93C273.209 107.964 273.267 107.999 273.325 108.034C273.382 108.104 273.44 108.173 273.498 108.278C273.729 108.138 273.729 108.138 273.44 107.964C273.382 107.93 273.325 107.895 273.325 107.86C273.209 107.79 273.151 107.755 273.035 107.686C273.093 107.651 273.151 107.616 273.151 107.581V107.407C273.093 107.372 273.035 107.338 273.035 107.303C273.151 107.268 273.325 107.233 273.44 107.198C273.498 107.233 273.556 107.268 273.614 107.303C273.845 107.407 274.076 107.477 274.365 107.581C274.423 107.616 274.481 107.651 274.481 107.686C274.423 107.721 274.365 107.755 274.365 107.79C274.423 107.825 274.481 107.86 274.481 107.895C274.539 107.86 274.597 107.825 274.654 107.79C274.77 107.86 274.828 107.895 274.944 107.964C275.001 107.999 275.059 108.034 275.117 108.069C275.059 108.104 275.001 108.138 274.944 108.173V108.556C275.001 108.452 275.059 108.382 275.117 108.278C275.175 108.208 275.233 108.173 275.233 108.173C275.291 108.208 275.348 108.243 275.406 108.278H275.695C275.753 108.208 275.811 108.173 275.811 108.173C275.869 108.138 275.927 108.104 275.984 108.069C276.042 108.034 276.1 107.999 276.1 107.964C276.158 107.93 276.216 107.895 276.274 107.86C276.331 107.825 276.389 107.79 276.447 107.755C276.505 107.79 276.563 107.825 276.563 107.86C276.62 107.825 276.678 107.79 276.736 107.755C276.678 107.721 276.62 107.686 276.563 107.651C276.678 107.581 276.736 107.547 276.852 107.477C276.91 107.442 276.967 107.407 277.025 107.372C277.314 107.303 277.603 107.268 277.893 107.198C277.95 107.233 278.008 107.268 278.008 107.303H278.586C278.413 107.268 278.297 107.233 278.182 107.198C278.124 107.164 278.066 107.129 278.008 107.094C278.182 106.989 278.182 106.989 277.603 106.815C277.546 106.781 277.488 106.746 277.488 106.711C277.835 106.607 278.182 106.502 278.471 106.432C278.529 106.467 278.586 106.502 278.644 106.537C278.702 106.641 278.76 106.815 278.876 106.955C279.049 106.955 279.222 106.989 279.396 107.024C279.454 107.059 279.512 107.094 279.512 107.129C279.454 107.233 279.396 107.372 279.396 107.512C280.379 107.129 279.916 107.024 280.495 106.676C280.552 106.711 280.61 106.746 280.61 106.781C280.726 106.885 280.784 107.024 280.899 107.129C281.015 107.094 281.246 107.059 281.42 107.059C281.246 106.955 281.015 106.85 280.899 106.746C280.957 106.711 281.015 106.676 281.015 106.641C281.824 106.467 281.824 106.467 282.229 106.084C282.287 106.119 282.345 106.154 282.345 106.189C282.403 106.154 282.46 106.119 282.518 106.084C282.46 106.049 282.403 106.015 282.345 105.98C282.518 105.841 282.634 105.701 282.75 105.527C282.865 105.841 282.923 106.189 283.097 106.572C283.79 106.084 284.195 105.806 284.311 105.214C284.542 105.249 284.831 105.318 285.12 105.353C284.889 105.423 284.658 105.458 284.426 105.527C284.426 105.701 284.426 105.701 285.005 105.806C284.947 105.841 284.889 105.875 284.831 105.91C284.658 105.945 284.542 105.98 284.426 106.015C284.369 106.049 284.311 106.084 284.253 106.119C284.311 106.154 284.369 106.189 284.426 106.224C284.484 106.189 284.542 106.154 284.542 106.119C285.756 106.154 285.756 106.154 285.525 106.015C285.583 105.98 285.641 105.945 285.641 105.91C286.161 105.806 286.681 105.736 287.26 105.632C287.318 105.597 287.375 105.562 287.433 105.527C287.491 105.562 287.549 105.597 287.549 105.632C287.607 105.666 287.664 105.701 287.722 105.736C287.78 105.771 287.838 105.806 287.838 105.841H288.127C288.185 105.806 288.243 105.771 288.301 105.736C288.474 105.701 288.59 105.666 288.705 105.632C288.763 105.597 288.821 105.562 288.821 105.527C288.879 105.492 288.937 105.458 288.994 105.423C289.052 105.388 289.11 105.353 289.168 105.318C289.573 105.249 290.035 105.214 290.498 105.179C290.498 105.04 290.556 104.901 290.613 104.761C290.556 104.726 290.498 104.692 290.44 104.657C290.498 104.622 290.556 104.587 290.613 104.552C290.671 104.448 290.729 104.378 290.729 104.274C290.787 104.239 290.845 104.204 290.845 104.169C291.018 104.1 291.249 104.065 291.423 103.995C291.481 104.03 291.539 104.065 291.596 104.1C292.001 104.204 292.348 104.343 292.811 104.483C293.504 104.065 293.447 103.995 294.661 103.995C294.719 104.03 294.777 104.065 294.834 104.1C295.124 104.135 295.413 104.169 295.702 104.204C295.702 104.03 295.702 104.03 295.008 104.03C294.95 103.995 294.892 103.961 294.892 103.926C294.777 103.856 294.719 103.821 294.603 103.752C294.661 103.717 294.719 103.682 294.719 103.647C294.777 103.612 294.834 103.578 294.892 103.543C294.95 103.508 295.008 103.473 295.008 103.438C295.066 103.473 295.124 103.508 295.181 103.543C295.239 103.647 295.297 103.717 295.297 103.821C295.355 103.717 295.413 103.647 295.47 103.543C295.528 103.508 295.586 103.473 295.586 103.438C295.644 103.299 295.702 103.16 295.76 103.055H296.164C296.222 103.09 296.28 103.125 296.28 103.16C296.222 103.195 296.164 103.229 296.164 103.264C296.222 103.299 296.28 103.334 296.28 103.369C296.338 103.299 296.396 103.264 296.396 103.264C296.453 103.299 296.511 103.334 296.569 103.369C297.205 103.195 297.205 103.195 297.61 102.568C297.668 102.603 297.726 102.637 297.783 102.672V103.125C297.957 103.09 298.188 103.055 298.362 103.02C298.419 102.986 298.477 102.951 298.477 102.916V102.742C298.419 102.707 298.362 102.672 298.362 102.637C298.477 102.568 298.535 102.533 298.651 102.463C298.766 102.603 298.94 102.777 299.055 102.916C299.113 102.951 299.171 102.986 299.229 103.02C299.287 102.986 299.345 102.951 299.402 102.916C299.287 102.881 299.229 102.846 299.229 102.812C299.287 102.672 299.345 102.533 299.46 102.394C299.518 102.429 299.576 102.498 299.691 102.533C299.749 102.568 299.807 102.603 299.865 102.637C299.923 102.603 299.981 102.568 299.981 102.533C299.923 102.498 299.865 102.463 299.865 102.429C299.634 102.324 299.46 102.255 299.229 102.15C299.345 102.046 299.402 101.976 299.518 101.872C299.865 101.872 299.865 101.872 300.27 102.324C300.212 102.046 300.154 101.802 300.154 101.523C300.27 101.454 300.385 101.419 300.559 101.419C300.617 101.454 300.674 101.489 300.674 101.523V102.185C300.964 102.185 300.964 102.185 300.964 101.523C301.021 101.489 301.079 101.454 301.137 101.419C301.368 101.558 301.6 101.697 301.831 101.906C301.773 101.941 301.715 101.976 301.715 102.011C301.542 102.046 301.426 102.08 301.31 102.115C301.484 102.15 301.6 102.185 301.715 102.22C301.773 102.255 301.831 102.289 301.831 102.324H302.467C302.351 102.289 302.178 102.255 302.062 102.22C301.947 102.185 301.889 102.15 301.889 102.115C301.947 102.08 302.004 102.046 302.062 102.011C302.236 101.837 302.467 101.663 302.698 101.489C302.987 101.593 303.334 101.732 303.623 101.837C303.508 101.001 303.508 101.001 303.797 100.583C304.144 100.618 304.491 100.688 304.78 100.723C304.895 100.618 304.953 100.549 305.069 100.444C305.185 100.514 305.242 100.549 305.358 100.618C305.3 100.653 305.242 100.688 305.185 100.723C305.127 100.757 305.069 100.792 305.069 100.827C305.011 100.862 304.953 100.897 304.895 100.932C304.838 100.966 304.78 101.001 304.78 101.036C304.722 101.071 304.664 101.106 304.664 101.14H304.202C304.202 101.314 304.202 101.314 304.838 101.245C304.895 101.21 304.953 101.175 304.953 101.14C305.011 101.106 305.069 101.071 305.127 101.036C305.185 101.001 305.242 100.966 305.242 100.932C305.3 100.897 305.358 100.862 305.416 100.827C305.474 100.792 305.532 100.757 305.532 100.723C305.705 100.827 305.821 100.966 305.936 101.071C306.225 101.071 306.225 101.071 306.225 100.723C306.514 100.688 306.804 100.653 307.151 100.618C307.208 100.583 307.266 100.549 307.324 100.514C307.266 100.479 307.208 100.444 307.151 100.409C307.035 100.444 307.035 100.479 306.977 100.514C306.919 100.305 306.861 100.131 306.804 99.9567H305.936C305.936 99.7826 305.936 99.7826 306.688 99.6433C306.514 99.5389 306.341 99.4344 306.225 99.33C306.283 99.2952 306.341 99.2604 306.399 99.2255C306.514 99.1907 306.688 99.1559 306.804 99.1211C307.324 99.9219 307.324 99.9219 307.555 99.9219C307.613 99.9567 307.671 99.9915 307.671 100.026C307.729 99.9567 307.787 99.9219 307.787 99.9219C307.729 99.887 307.671 99.8522 307.671 99.8174C307.729 99.7826 307.787 99.7478 307.787 99.713C308.018 99.7478 308.249 99.7826 308.48 99.8174C308.423 99.8522 308.365 99.887 308.307 99.9219C308.249 100.026 308.191 100.096 308.191 100.235C308.133 100.27 308.076 100.305 308.018 100.34C308.076 100.374 308.133 100.409 308.191 100.444C308.249 100.409 308.307 100.374 308.307 100.34H308.885C308.943 100.374 309.001 100.409 309.059 100.444H309.348C309.406 100.409 309.463 100.374 309.521 100.34C309.695 100.444 309.695 100.444 309.868 99.9567C309.81 99.9219 309.753 99.887 309.753 99.8522C309.926 99.7826 310.157 99.7478 310.331 99.6781C310.389 99.6433 310.446 99.6085 310.446 99.5737C310.389 99.5389 310.331 99.5041 310.331 99.4693C310.273 99.5041 310.215 99.5389 310.157 99.5737C309.81 99.6433 309.521 99.6781 309.232 99.7478C309.348 99.8174 309.406 99.8522 309.521 99.9219C309.579 99.9567 309.637 99.9915 309.695 100.026C309.521 100.096 309.463 100.131 309.348 100.2C309.29 100.235 309.232 100.27 309.174 100.305C309.116 100.27 309.059 100.235 309.059 100.2C308.885 100.131 308.654 100.096 308.48 100.026C308.538 99.9567 308.596 99.9219 308.596 99.9219C308.654 99.8174 308.712 99.7478 308.77 99.6433C308.827 99.6085 308.885 99.5737 308.885 99.5389L309.059 99.0863C309.116 99.0515 309.174 99.0166 309.174 98.9818C309.868 99.0166 310.62 99.0515 311.372 99.0863C311.314 99.1211 311.256 99.1559 311.198 99.1907C311.256 99.2255 311.314 99.2604 311.372 99.2952C311.429 99.2604 311.487 99.2255 311.487 99.1907C311.661 99.1211 311.892 99.0863 312.065 99.0166C311.834 98.9122 311.603 98.7729 311.372 98.7033C311.429 98.5292 311.487 98.3551 311.603 98.2159C311.661 98.1811 311.718 98.1462 311.776 98.1114H312.991C313.048 98.1462 313.106 98.1811 313.164 98.2159C313.28 98.3203 313.337 98.4596 313.453 98.5989C313.511 97.9722 313.511 97.9722 313.28 98.1114C313.222 98.0766 313.164 98.0418 313.164 98.007C312.991 97.9025 312.991 97.9025 313.28 97.6588C313.569 97.7633 313.858 97.8329 314.147 97.9373C314.205 97.9722 314.263 98.007 314.32 98.0418C314.725 98.0766 315.072 98.1114 315.535 98.1462C315.535 97.9722 315.535 97.9722 314.956 97.9722C315.014 97.8677 315.072 97.7284 315.13 97.624C315.188 97.6588 315.246 97.6936 315.246 97.7285C315.535 97.7633 315.824 97.7981 316.113 97.8329V98.1811C316.402 98.1811 316.402 98.1811 316.402 97.3803C316.46 97.3455 316.518 97.3107 316.576 97.2758C316.633 97.3107 316.691 97.3455 316.749 97.3803C316.807 97.4151 316.865 97.4499 316.865 97.4847C316.922 97.5196 316.98 97.5544 316.98 97.5892C317.154 97.624 317.385 97.6588 317.616 97.6936C317.616 97.5196 317.616 97.5196 317.154 97.5196C317.096 97.4847 317.038 97.4499 316.98 97.4151C316.922 97.3803 316.865 97.3455 316.865 97.3107C316.807 97.2758 316.749 97.241 316.749 97.2062C316.865 96.9973 316.922 96.8232 317.038 96.6492C317.096 96.6143 317.154 96.5795 317.212 96.5447C317.154 96.5099 317.096 96.4751 317.038 96.4403C316.98 96.4751 316.922 96.5099 316.922 96.5447C316.749 96.6492 316.749 96.6492 316.518 96.1965C316.922 96.2662 317.385 96.301 317.848 96.3706C317.674 96.4751 317.616 96.6143 317.501 96.7188C317.616 96.7188 317.848 96.7188 318.021 96.7536C318.137 96.6143 318.252 96.4751 318.426 96.3706C318.484 96.4054 318.541 96.4403 318.541 96.4751C318.657 96.5447 318.715 96.5795 318.831 96.6492C318.946 96.5447 319.004 96.4751 319.12 96.3706C319.409 96.3706 319.409 96.3706 319.524 96.9277C319.582 96.9625 319.64 96.9973 319.698 97.0321C319.64 97.067 319.582 97.1018 319.524 97.1366C319.004 97.241 318.484 97.3107 317.963 97.4151C318.657 97.6936 318.657 97.6936 319.235 97.6936C319.293 97.7285 319.351 97.7633 319.409 97.7981C319.467 97.8329 319.524 97.8677 319.524 97.9025C319.582 97.9374 319.64 97.9722 319.698 98.007C319.64 98.0418 319.582 98.0766 319.524 98.1114C319.582 98.1462 319.64 98.1811 319.698 98.2159C319.756 98.1811 319.814 98.1462 319.871 98.1114V97.9373C319.814 97.9025 319.756 97.8677 319.698 97.8329C319.64 97.7981 319.582 97.7633 319.524 97.7285C319.467 97.6936 319.409 97.6588 319.409 97.624C319.467 97.5196 319.524 97.4499 319.524 97.3455C319.582 97.3803 319.64 97.4151 319.698 97.4499C319.756 97.4151 319.814 97.3803 319.871 97.3455C319.814 97.3107 319.756 97.2758 319.698 97.241C319.756 97.2062 319.814 97.1714 319.871 97.1366V96.9625C319.814 96.8929 319.756 96.8581 319.698 96.8581C319.987 96.7536 320.276 96.6143 320.623 96.5099C320.45 96.4403 320.218 96.4054 320.045 96.3358C320.103 96.301 320.16 96.2662 320.16 96.2314C320.334 96.1965 320.45 96.1617 320.565 96.1269H319.987C319.871 96.1617 319.814 96.1965 319.814 96.2314C319.582 96.1965 319.351 96.1617 319.12 96.1269C319.178 96.0921 319.235 96.0573 319.235 96.0225C319.293 95.9876 319.351 95.9528 319.409 95.918C319.467 95.8832 319.524 95.8484 319.524 95.8136C319.698 95.7788 319.814 95.7439 319.987 95.7091C320.045 95.6743 320.103 95.6395 320.103 95.6047C320.276 95.5002 320.392 95.4306 320.507 95.3261C320.623 95.3958 320.681 95.4306 320.797 95.5002C320.739 95.535 320.681 95.5699 320.623 95.6047C320.681 95.6395 320.739 95.6743 320.797 95.7091C320.854 95.6743 320.912 95.6395 320.97 95.6047C321.028 95.6395 321.086 95.6743 321.086 95.7091C321.49 95.8136 321.953 95.8832 322.358 95.9877C322.416 96.0225 322.473 96.0573 322.531 96.0921C322.589 96.1269 322.647 96.1617 322.705 96.1965C322.762 96.2314 322.82 96.2662 322.82 96.301H323.398C323.225 96.2662 323.109 96.2314 322.994 96.1965C322.936 96.1617 322.878 96.1269 322.82 96.0921C322.762 96.0573 322.705 96.0225 322.705 95.9877C322.647 95.9528 322.589 95.918 322.531 95.8832C322.589 95.8484 322.647 95.8136 322.705 95.7788C322.878 95.4654 323.109 95.1521 323.283 94.8735C323.225 94.8387 323.167 94.8039 323.109 94.7691C323.167 94.7343 323.225 94.6995 323.283 94.6646C323.456 94.7343 323.688 94.7691 323.861 94.8387C323.919 94.8735 323.977 94.9084 324.035 94.9432C324.092 94.978 324.15 95.0128 324.15 95.0476C324.208 95.0824 324.266 95.1173 324.324 95.1521C324.15 95.4306 324.15 95.4306 324.439 95.6395C324.497 95.6743 324.555 95.7091 324.613 95.7439C324.555 95.7788 324.497 95.8136 324.439 95.8484C324.497 95.8832 324.555 95.918 324.613 95.9528C324.671 95.918 324.728 95.8832 324.728 95.8484C324.786 95.8136 324.844 95.7788 324.902 95.7439C324.96 95.7091 325.018 95.6743 325.018 95.6395C324.96 95.6047 324.902 95.5699 324.902 95.535C324.844 95.5699 324.786 95.6047 324.728 95.6395C324.671 95.6047 324.613 95.5699 324.613 95.535C324.844 95.4306 325.075 95.361 325.364 95.2565C325.422 95.2913 325.48 95.3261 325.48 95.361C325.538 95.4654 325.596 95.5351 325.654 95.6395C325.711 95.6743 325.769 95.7091 325.769 95.7439C325.827 95.7788 325.885 95.8136 325.943 95.8484C326.001 95.8832 326.058 95.918 326.058 95.9528C326.116 95.918 326.174 95.8832 326.232 95.8484C326.174 95.8136 326.116 95.7788 326.058 95.7439C326.001 95.7091 325.943 95.6743 325.943 95.6395C325.885 95.6047 325.827 95.5699 325.769 95.535C325.711 95.4306 325.654 95.361 325.654 95.2565C325.596 95.1869 325.538 95.1521 325.48 95.1521C325.364 95.0476 325.364 95.0476 324.439 95.0476C324.381 95.0128 324.324 94.978 324.324 94.9432C324.266 94.9084 324.208 94.8735 324.15 94.8387C324.092 94.8039 324.035 94.7691 324.035 94.7343C324.208 94.6646 324.439 94.6298 324.613 94.5602L323.919 94.2817C323.861 94.2469 323.803 94.212 323.803 94.1772C324.15 94.1424 324.497 94.1076 324.786 94.0728C324.844 94.1076 324.902 94.1424 324.96 94.1772V94.6298C325.654 94.7343 325.654 94.7343 325.885 94.5254C325.943 94.4906 326.001 94.4558 326.058 94.4209C326.116 94.3165 326.174 94.1772 326.174 94.0728H326.579C326.637 94.1076 326.694 94.1424 326.694 94.1772H326.983C327.041 94.1424 327.099 94.1076 327.099 94.0728H327.388C327.446 94.1076 327.504 94.1424 327.504 94.1772C327.562 94.1424 327.62 94.1076 327.677 94.0728C327.562 94.038 327.504 94.0031 327.504 93.9683C327.562 93.9335 327.62 93.8987 327.677 93.8639C328.024 93.7594 328.371 93.6898 328.66 93.5853C328.718 93.5157 328.776 93.4809 328.834 93.4809C328.892 93.5157 328.949 93.5505 328.949 93.5853C329.123 93.9683 329.181 93.9335 329.239 93.8987ZM309.174 93.8987H308.885V94.1076H309.174V93.8987ZM331.147 94.2817H331.436V94.1076H331.147V94.2817ZM310.099 94.1076H309.81V94.2817H310.099V94.1076ZM304.491 94.1076H304.202V94.2817H304.491V94.1076ZM329.643 94.212C329.585 94.2469 329.528 94.2817 329.47 94.3165C329.354 94.3513 329.181 94.3861 329.065 94.4209C329.181 94.4558 329.354 94.4906 329.47 94.5254C329.528 94.5602 329.585 94.595 329.643 94.6298C329.701 94.595 329.759 94.5602 329.817 94.5254C329.759 94.4906 329.701 94.4558 329.643 94.4209L329.817 94.3165C329.759 94.2469 329.701 94.2469 329.643 94.212ZM307.497 94.2817H307.208V94.4557H307.497V94.2817ZM302.525 94.4557H302.236V94.6298H302.525V94.4557ZM328.198 94.8387H328.487V94.4906H328.198V94.8387ZM309.174 94.2817H308.885V94.8039H309.174V94.2817ZM308.654 94.6298H308.365V94.8039H308.654V94.6298ZM301.31 94.6298H301.021V94.8039H301.31V94.6298ZM326.463 95.0128H326.752V94.8387H326.463V95.0128ZM302.525 94.8387H302.236V95.0128H302.525V94.8387ZM327.793 95.0128C327.677 94.978 327.62 94.9432 327.62 94.9084H327.33C327.273 94.9432 327.215 94.978 327.157 95.0128V95.361C327.215 95.2565 327.273 95.1869 327.33 95.0824C327.388 95.0476 327.446 95.0128 327.446 94.978C327.504 95.0128 327.562 95.0476 327.562 95.0824C327.62 95.0476 327.677 95.0128 327.793 95.0128ZM303.797 95.1869C303.912 95.1521 304.086 95.1173 304.202 95.0824H303.623C303.566 95.1173 303.508 95.1521 303.508 95.1869C303.566 95.2217 303.623 95.2565 303.623 95.2913C303.681 95.2217 303.739 95.2217 303.797 95.1869ZM302.93 95.1869C302.872 95.1521 302.814 95.1173 302.756 95.0824C302.698 95.1173 302.64 95.1521 302.64 95.1869C302.698 95.2217 302.756 95.2565 302.756 95.2913C302.872 95.2217 302.872 95.2217 302.93 95.1869ZM326.174 95.361H326.752V95.1869H326.174V95.361ZM300.443 95.1869H300.154V95.361H300.443V95.1869ZM298.708 95.1869H298.419V95.361H298.708V95.1869ZM296.627 95.1869H296.338V95.361H296.627V95.1869ZM327.62 95.5699H327.966V95.361H327.62V95.5699ZM301.889 95.1869H301.31V95.5699H301.889V95.1869ZM299.576 95.361H298.94V95.5699H299.576V95.361ZM302.814 95.7439H303.103V95.5699H302.814V95.7439ZM302.525 95.5699H302.236V95.7439H302.525V95.5699ZM327.041 95.918H327.33V95.7439H327.041V95.918ZM297.089 95.918C297.032 95.8832 296.974 95.8484 296.974 95.8136C296.858 95.8484 296.858 95.8832 296.8 95.918C296.858 95.9528 296.916 95.9876 296.974 96.0225C297.032 95.9876 297.089 95.9528 297.089 95.918ZM323.514 95.8136C323.399 95.918 323.341 95.9877 323.225 96.0921C323.456 96.0225 323.688 95.9877 323.977 95.9528C323.803 95.8832 323.688 95.8484 323.514 95.8136ZM302.525 95.918H302.236V96.0921H302.525V95.918ZM297.841 95.7439H297.552V96.0921H297.841V95.7439ZM296.049 95.7439H295.76V96.0921H296.049V95.7439ZM301.889 96.0921H301.6V96.2662H301.889V96.0921ZM300.443 96.2662C300.674 96.1965 300.906 96.1617 301.137 96.0921C300.906 95.918 300.674 95.7439 300.443 95.5699V96.2662ZM293.447 96.0921H293.158V96.2662H293.447V96.0921ZM324.96 96.4403H325.307V96.2662H324.96V96.4403ZM292.001 96.1965C291.885 96.301 291.828 96.3706 291.712 96.4751H292.29C292.175 96.3706 292.117 96.2662 292.001 96.1965ZM323.803 96.7884H324.092V96.6143H323.803V96.7884ZM321.49 96.7884H321.779V96.4403H321.49V96.7884ZM324.671 96.9973H324.96V96.7884H324.671V96.9973ZM284.716 96.7884H284.426V96.9625H284.716V96.7884ZM322.358 97.1714C322.473 97.0321 322.531 96.8929 322.705 96.7884C322.531 96.8232 322.3 96.858 322.126 96.8929C322.126 96.9973 322.242 97.1018 322.358 97.1714ZM321.317 97.1714C321.375 97.2062 321.433 97.241 321.49 97.2758C321.433 97.3107 321.375 97.3455 321.317 97.3803H321.028C320.97 97.3455 320.912 97.3107 320.854 97.2758C320.797 97.241 320.739 97.2062 320.681 97.1714C320.623 97.1018 320.565 97.0669 320.565 97.0669C320.507 97.1018 320.45 97.1366 320.392 97.1714C320.45 97.2062 320.507 97.241 320.565 97.2758C320.623 97.3107 320.681 97.3455 320.681 97.3803C320.739 97.4151 320.797 97.4499 320.854 97.4847H321.433C321.49 97.4499 321.548 97.4151 321.548 97.3803V97.2062C321.49 97.1366 321.433 97.1018 321.433 97.1018C321.433 97.1018 321.375 97.1366 321.317 97.1714ZM317.385 97.5544H317.732V97.3803H317.385V97.5544ZM284.716 97.5544H285.005V97.3803H284.716V97.5544ZM284.426 97.3803H284.137V97.5544H284.426V97.3803ZM322.069 97.7285H322.358V97.5544H322.069V97.7285ZM320.334 97.7285H320.623V97.5544H320.334V97.7285ZM280.321 97.5544H280.032V97.7285H280.321V97.5544ZM282.634 97.7285H282.345V97.9025H282.634V97.7285ZM278.876 97.7285H278.529V97.9025H278.876V97.7285ZM277.661 98.0766H277.372V98.2507H277.661V98.0766ZM318.831 98.4248H319.12V98.2507H318.831V98.4248ZM316.922 98.4248C316.865 98.5292 316.807 98.6685 316.807 98.8077C317.096 98.8077 317.096 98.8077 317.096 98.5292C317.154 98.4944 317.212 98.4596 317.269 98.4248C317.212 98.39 317.154 98.3551 317.096 98.3203C317.038 98.3551 316.98 98.39 316.922 98.4248ZM278.702 98.4248C278.76 98.4596 278.818 98.4944 278.876 98.5292H279.165C279.222 98.4944 279.28 98.4596 279.338 98.4248C279.28 98.39 279.222 98.3551 279.165 98.3203C279.107 98.3551 279.049 98.39 279.049 98.4248C278.991 98.39 278.933 98.3551 278.876 98.3203C278.76 98.3551 278.702 98.39 278.702 98.4248ZM318.252 98.4248H317.963V98.5989H318.252V98.4248ZM278.239 98.2507H277.95V98.5989H278.239V98.2507ZM277.372 98.4248H277.083V98.5989H277.372V98.4248ZM276.794 98.4248H276.216V98.5989H276.794V98.4248ZM275.637 98.4248H275.348V98.5989H275.637V98.4248ZM315.65 98.8077H316.229V98.5989H315.65V98.8077ZM269.508 98.5989H269.219V98.8077H269.508V98.5989ZM318.252 98.9818H318.541V98.8077H318.252V98.9818ZM315.361 98.5989C315.072 98.5989 315.072 98.5988 315.246 98.9818C315.303 99.0166 315.361 99.0515 315.361 99.0863C315.419 99.0515 315.477 99.0166 315.535 98.9818C315.477 98.947 315.419 98.9122 315.361 98.8774V98.5989ZM313.048 98.8077H312.759V98.9818H313.048V98.8077ZM272.978 98.8077H272.689V98.9818H272.978V98.8077ZM271.821 98.9818H270.896V99.1559H271.821V98.9818ZM269.508 99.1559H269.797V98.9818H269.508V99.1559ZM269.219 98.9818H268.93V99.1559H269.219V98.9818ZM316.344 99.1559C316.402 99.1907 316.46 99.2255 316.46 99.2604C316.402 99.2952 316.344 99.33 316.344 99.3648C316.402 99.3996 316.46 99.4344 316.46 99.4693C316.518 99.4344 316.575 99.3996 316.633 99.3648V99.1907C316.575 99.1559 316.518 99.1211 316.46 99.0863C316.46 99.1211 316.402 99.1559 316.344 99.1559ZM317.963 99.33H318.252V99.1559H317.963V99.33ZM313.569 99.1559H313.28V99.33H313.569V99.1559ZM268.641 99.1559H268.294V99.33H268.641V99.1559ZM264.536 99.1559H264.247V99.33H264.536V99.1559ZM314.32 99.33C314.378 99.3648 314.436 99.3996 314.494 99.4344C314.552 99.3996 314.61 99.3648 314.61 99.33V98.9818C314.552 98.947 314.494 98.9122 314.494 98.8774C314.552 98.8426 314.61 98.8078 314.61 98.7729C314.552 98.7033 314.494 98.6685 314.494 98.6685C314.436 98.7033 314.378 98.7381 314.32 98.7729C314.263 98.8078 314.205 98.8426 314.147 98.8774C314.089 98.9122 314.031 98.947 314.031 98.9818C314.089 99.0166 314.147 99.0515 314.147 99.0863C314.205 99.0515 314.263 99.0166 314.32 98.9818C314.378 99.0166 314.436 99.0515 314.494 99.0863V99.2604C314.378 99.2952 314.378 99.33 314.32 99.33ZM315.65 99.5389H315.939V99.3648H315.65V99.5389ZM315.072 99.5389H315.361V99.3648H315.072V99.5389ZM312.759 99.5389H313.048V99.3648H312.759V99.5389ZM261.355 99.33H261.066V99.5041H261.355V99.33ZM262.917 99.713C262.859 99.6781 262.801 99.6433 262.743 99.6085C262.685 99.6433 262.628 99.6781 262.628 99.713C262.685 99.7478 262.743 99.7826 262.743 99.8174C262.801 99.7478 262.859 99.713 262.917 99.713ZM313.569 99.887H314.147V99.713H313.569V99.887ZM313.048 99.887H313.337V99.713H313.048V99.887ZM312.47 99.887H312.759V99.713H312.47V99.887ZM311.95 99.713V100.061C312.008 100.096 312.065 100.131 312.065 100.166C312.123 100.131 312.181 100.096 312.239 100.061C312.123 100.026 312.065 99.9915 312.065 99.9567L311.95 99.713ZM314.725 100.235H315.072V100.061H314.725V100.235ZM313.048 100.235H313.337V100.061H313.048V100.235ZM310.678 100.235H310.967V100.061H310.678V100.235ZM313.048 100.618H313.337V100.444H313.048V100.618ZM261.934 100.444H261.645V100.618H261.934V100.444ZM314.436 100.792H314.725V100.618H314.436V100.792ZM311.082 100.792C311.14 100.827 311.198 100.862 311.256 100.897C311.314 100.862 311.372 100.827 311.372 100.792C311.314 100.757 311.256 100.723 311.256 100.688C311.198 100.723 311.14 100.757 311.082 100.792ZM258.06 100.792H257.77V100.966H258.06V100.792ZM310.678 101.14H310.967V100.966H310.678V101.14ZM307.324 101.14C307.382 101.175 307.44 101.21 307.44 101.245C307.497 101.21 307.555 101.175 307.613 101.14C307.729 101.106 307.902 101.071 308.018 101.036H307.44C307.44 101.106 307.382 101.106 307.324 101.14ZM309.463 101.314H309.81V101.14H309.463V101.314ZM308.365 101.489H308.654V101.314H308.365V101.489ZM261.066 101.314H260.719V101.489H261.066V101.314ZM259.563 101.314H259.274V101.489H259.563V101.314ZM305.416 101.697H305.994V101.523H305.416V101.697ZM258.06 101.489H257.77V101.663H258.06V101.489ZM306.861 101.872H307.208V101.523H306.861V101.872ZM304.202 101.872H304.838V101.697H304.202V101.872ZM259.852 102.255H259.563V102.429H259.852V102.255ZM303.103 102.603H303.392V102.429H303.103V102.603ZM301.31 102.777H301.6V102.603H301.31V102.777ZM259.563 102.777H259.852V102.603H259.563V102.777ZM300.443 102.951H300.732V102.777H300.443V102.951ZM257.944 103.299C258.002 103.334 258.06 103.369 258.06 103.403C258.117 103.369 258.175 103.334 258.233 103.299C258.117 103.264 258.117 103.229 258.06 103.195C258.06 103.264 258.002 103.264 257.944 103.299ZM298.708 103.473H298.998V103.299H298.708V103.473ZM259.563 103.612C259.621 103.543 259.679 103.508 259.679 103.508C259.621 103.473 259.563 103.438 259.563 103.403V102.951C259.389 102.986 259.158 103.02 259.043 103.055C259.158 103.16 259.274 103.334 259.447 103.473C259.447 103.508 259.505 103.543 259.563 103.612ZM296.338 103.961C296.28 103.995 296.222 104.03 296.222 104.065C296.28 104.1 296.338 104.135 296.338 104.169C296.396 104.135 296.453 104.1 296.453 104.065H296.916C296.974 103.856 296.974 103.856 296.338 103.961ZM259.274 104.03H259.563V103.856H259.274V104.03ZM256.961 104.03H257.25V103.856H256.961V104.03ZM257.481 104.587H257.77V104.413H257.481V104.587ZM291.712 104.587H291.076V104.761H291.712V104.587ZM294.603 104.935H294.892V104.761H294.603V104.935ZM293.447 105.144H293.736V104.935H293.447V105.144ZM292.464 104.796C292.348 104.901 292.348 105.04 292.29 105.144H293.158C293.158 104.935 293.158 104.935 292.464 104.796ZM259.274 104.935H258.985V105.144H259.274V104.935ZM291.076 105.318H291.365V104.935H291.076V105.318ZM291.712 105.492H292.001V105.318H291.712V105.492ZM291.076 105.666H291.365V105.492H291.076V105.666ZM258.985 105.666H258.406V105.841H258.985V105.666ZM259.274 106.015H258.985V106.189H259.274V106.015ZM288.185 106.398H288.474V106.189H288.185V106.398ZM287.028 106.398H287.318V106.189H287.028V106.398ZM286.103 106.572H286.739V106.398H286.103V106.572ZM261.645 106.015V106.746C261.934 106.746 261.934 106.746 262.107 106.119C261.934 106.084 261.76 106.049 261.645 106.015ZM260.893 106.955C260.951 106.989 261.008 107.024 261.066 107.059C261.124 107.024 261.182 106.989 261.182 106.955C261.124 106.92 261.066 106.885 261.066 106.85C260.835 106.815 260.835 106.815 260.893 106.955ZM259.158 107.129C259.216 107.164 259.274 107.198 259.332 107.233C259.389 107.198 259.447 107.164 259.447 107.129C259.621 107.094 259.736 107.059 259.852 107.024H259.274C259.216 107.059 259.158 107.094 259.158 107.129ZM282.345 107.651H282.634V107.477H282.345V107.651ZM260.43 107.477H260.141V107.651H260.43V107.477ZM280.148 107.651C280.09 107.686 280.032 107.721 280.032 107.755C279.974 107.79 279.916 107.825 279.916 107.86C279.974 107.895 280.032 107.93 280.032 107.964C280.09 107.93 280.148 107.895 280.148 107.86C280.205 107.825 280.263 107.79 280.321 107.755C280.379 107.721 280.437 107.686 280.495 107.651C280.437 107.616 280.379 107.581 280.321 107.547C280.263 107.581 280.205 107.616 280.148 107.651ZM281.131 107.825H281.477V107.651H281.131V107.825ZM277.661 107.825H277.95V107.651H277.661V107.825ZM263.379 107.825H263.668V107.651H263.379V107.825ZM272.11 107.825H271.821V107.999H272.11V107.825ZM262.743 107.999H263.032V107.825H262.743V107.999ZM261.645 107.651C261.818 107.964 261.818 107.964 262.049 107.825C262.107 107.86 262.165 107.895 262.223 107.93C262.281 107.895 262.338 107.86 262.338 107.825C262.281 107.79 262.223 107.755 262.223 107.721C261.991 107.721 261.818 107.686 261.645 107.651ZM260.43 107.999H261.066V107.825H260.43V107.999ZM277.083 108.173H277.372V107.999H277.083V108.173ZM263.379 108.173H263.668V107.999H263.379V108.173ZM276.216 108.382H276.505V108.173H276.216V108.382ZM274.192 108.382H274.481V108.173H274.192V108.382ZM271.821 108.382H272.11V108.173H271.821V108.382ZM261.645 108.382H261.934V108.173H261.645V108.382ZM265.692 108.173H265.403V108.556H265.692V108.173ZM269.913 108.556C269.855 108.521 269.797 108.487 269.797 108.452V108.138C269.508 108.138 269.508 108.138 269.624 108.521C269.682 108.556 269.74 108.591 269.797 108.626C269.855 108.626 269.855 108.591 269.913 108.556ZM266.849 108.556H266.559V108.73H266.849V108.556ZM263.379 108.73H263.668V108.556H263.379V108.73ZM267.774 108.347V108.8C267.889 108.835 268.121 108.904 268.294 108.939C268.352 108.765 268.41 108.591 268.468 108.417C268.525 108.452 268.583 108.487 268.583 108.521C268.641 108.626 268.699 108.695 268.757 108.8V108.452C268.699 108.417 268.641 108.382 268.583 108.347C268.352 108.313 268.063 108.313 267.774 108.347ZM266.039 108.73H265.692V108.904H266.039V108.73ZM271.995 108.939C272.052 108.974 272.11 109.009 272.11 109.044C272.168 109.009 272.226 108.974 272.284 108.939C272.399 108.904 272.573 108.87 272.689 108.835H272.11L271.995 108.939ZM270.78 108.939C270.838 108.974 270.896 109.009 270.954 109.044C271.012 109.009 271.07 108.974 271.127 108.939C271.012 108.904 271.012 108.87 270.954 108.835L270.78 108.939ZM273.267 109.113H273.556V108.939H273.267V109.113ZM269.797 109.113H270.087V108.939H269.797V109.113ZM266.849 109.113H267.138V108.939H266.849V109.113ZM264.825 109.113H265.114V108.939H264.825V109.113ZM265.808 109.461C265.866 109.496 265.923 109.531 265.981 109.566C266.039 109.531 266.097 109.496 266.155 109.461C266.097 109.427 266.039 109.392 265.981 109.357C265.923 109.392 265.866 109.427 265.808 109.461Z" fill="#E71623"/>
<path d="M151.274 122.079C154.192 121.87 155.249 124.805 154.488 130.256H145.987C145.987 130.204 145.987 130.151 145.987 130.099C145.86 126.535 148.356 122.289 151.274 122.079ZM144.887 139.062H167.218C168.403 128.212 168.656 122.237 165.104 117.572C162.228 113.798 158.083 112.645 152.373 112.645C142.265 112.645 134.314 117.729 131.058 127.321C130.339 129.47 129.873 131.776 129.62 134.344C128.351 145.823 130.465 156.096 148.99 155.939C150.766 155.939 159.309 155.1 162.862 153.476L164.216 143.045C150.978 147.71 143.915 145.561 144.887 139.062ZM131.269 116.419L133.849 99.384H93.3318L91.5555 113.798H112.448L87.1147 137.909L85 155.1H126.617L128.689 140.32H106.4L131.269 116.419ZM186.673 120.297L187.604 113.431H172.251L166.372 155.1H182.74L186.166 129.103C186.293 128.055 187.519 125.329 189.718 125.329C191.791 125.329 192.171 127.74 192.045 128.579L188.323 155.1H204.648L208.624 125.801C211.796 108.137 190.903 110.076 186.673 120.297ZM270.076 144.932C267.581 145.928 265.635 145.299 265.043 143.412C264.451 141.578 265.339 138.8 267.538 137.751C269.738 136.703 272.444 136.441 274.178 136.86C274.728 138.8 272.571 143.936 270.076 144.932ZM288.135 117.729C283.906 112.016 269.611 110.601 257.811 114.899L256.119 126.692C260.179 124.228 275.828 118.515 275.659 128.998C271.429 128.579 267.581 128.369 264.028 128.946C258.953 129.784 254.47 132.248 251.636 137.804C250.071 140.844 249.437 144.355 249.902 147.658C250.875 154.157 256.669 156.149 261.279 155.991C265.847 155.834 269.568 153.318 272.275 149.178L271.598 155.153H286.57L290.461 128.369C290.757 124.124 290.081 120.455 288.135 117.729ZM309.493 122.866L310.847 113.483H295.494L289.658 155.1H306.025L308.055 139.691C310.931 129.47 316.429 128.002 321.589 129.417L324 112.645C316.937 110.968 311.65 117.677 309.493 122.866ZM249.86 130.413C249.479 128.526 248.929 127.321 248.083 126.115C245.546 122.708 241.232 120.559 234.888 119.406C232.773 118.935 227.952 117.939 229.939 114.322C232.985 108.714 246.392 112.959 250.367 114.689L252.397 100.327C242.035 97.5495 230.616 96.3964 221.185 101.847C215.56 105.359 212.811 110.024 211.965 115.266C209.892 128.212 216.617 131.252 226.302 134.24C228.671 135.026 232.646 135.235 232.773 138.538C232.731 143.569 218.055 144.251 209.427 138.904L207.355 153.318C218.943 157.249 236.368 157.197 243.854 149.964C248.675 145.142 251.171 138.485 249.86 130.413Z" fill="#002D64"/>
</svg>
